<svg xmlns="http://www.w3.org/2000/svg" xml:space="preserve" id="uwu__data-blue_svg__Layer_1" width="720" height="441.5" x="0" y="0" version="1.1">
  <style>
    .uwu__data-blue_svg__st1{fill-rule:evenodd;clip-rule:evenodd;fill:#fbfbfb}.uwu__data-blue_svg__st2{fill:#3d79e3}.uwu__data-blue_svg__st3,.uwu__data-blue_svg__st4,.uwu__data-blue_svg__st5{fill:#2d5aa8}.uwu__data-blue_svg__st4,.uwu__data-blue_svg__st5{fill-rule:evenodd;clip-rule:evenodd}.uwu__data-blue_svg__st5{fill:#5e99ff}.uwu__data-blue_svg__st6{fill:#48f}.uwu__data-blue_svg__st6,.uwu__data-blue_svg__st7{fill-rule:evenodd;clip-rule:evenodd}.uwu__data-blue_svg__st7,.uwu__data-blue_svg__st8{fill:#fff}.uwu__data-blue_svg__st12,.uwu__data-blue_svg__st9{fill:#48f}.uwu__data-blue_svg__st12{fill-opacity:.502}.uwu__data-blue_svg__st13{fill-rule:evenodd;clip-rule:evenodd;fill:#244887}
  </style>
  <path d="M473.2 5.3c-93.1 0-174 52.2-215.1 128.9-2.1 0-4.3-.1-6.4-.1C114.3 134.2 3 232.5 3 353.7 3 383 9.5 411 21.4 436.6h607.8c53.7-44.7 87.8-112.1 87.8-187.4C717 114.5 607.9 5.3 473.2 5.3" opacity=".2" fill-rule="evenodd" clip-rule="evenodd" fill="#5e99ff"/>
  <path d="m624.5 224 .4 14.2-13.2-.2.2-5.5.2-6.6z" class="uwu__data-blue_svg__st1"/>
  <path d="m624 224.4.4 13.4-12.5-.1.2-5.2.2-6.4zm1.1 13.7-.4-14.1v-.4l-.4.1-12.3 1.8h-.3v.3l-.2 6.6-.3 5.5v.3h.3l13.2.1h.3z" class="uwu__data-blue_svg__st2"/>
  <path d="M613.7 200.5c.4-.4 14.1-.4 12.2 14.5 0 0 3.6-2.1 2.7 3.3 0 0 0 1.9-2.7 1.8 0 0-3.1 12.5-11.3 11.3-8.1-1.2-7.6-9-7.6-9v-13.3c.1.1-1.5-9 6.7-8.6" class="uwu__data-blue_svg__st1"/>
  <path d="M614 200.8c.1-.1.8-.1 2 .1.9.1 2.1.4 3.2.8 1.2.5 2.3 1.1 3.4 2.1 2.2 2.1 3.8 5.5 3.1 11.2l-.1.7.6-.3s3-1.8 2.2 2.9c0 0 0 1.6-2.4 1.5h-.3l-.1.3s-3 12.2-10.9 11.1c-7.8-1.1-7.3-8.6-7.3-8.6v-13.4s-1.5-8.7 6.3-8.3h.2zm2.1-.6c-1-.1-1.9-.1-2.3 0-8.4-.5-7.1 8.4-7 9v13.3c0 .4-.4 8.1 7.9 9.3 7.8 1.1 11.1-9.5 11.6-11.3 2.6 0 2.8-1.9 2.8-2.1.8-4.7-1.5-4.3-2.6-3.9.6-5.6-1.1-9-3.3-11.2-1.1-1-2.4-1.8-3.6-2.3-1.4-.4-2.6-.7-3.5-.8" class="uwu__data-blue_svg__st2"/>
  <path d="M606.8 214.9c.5-.1.4 0 .7-.4v-4.3c.9-2.8 2.8-4.6 2.8-4.6-.5-.5-.7-.7-1-1.4-.5-.9-.9-1.7-1-2.7-.9.8-1.5 1.9-1.9 2.6-.2.5-.3 1.1-.4 1.6-.1 2.1.4 7.7.8 9.2" class="uwu__data-blue_svg__st3"/>
  <path d="M620.3 205c.6 2 2.9 3.6 4.9 4.4.1 1.3 1.2 4.6 1.2 5.2.5-.3 1.3-.4 1.8-.2.1 0 .1.1.2.1.2-1.1 1-7.7 1-8.1-.1-.4-.6-1.6-2-3.3.8.4 1 .2 1 .2s-.4-.2-1.7-1.8-3.2-2.9-5.9-3.3c-.7-.1-1.6-.1-2.6.1-2.9.4-6.6 1.5-8.1 1.9-.7.2-1.4.7-2 1.2h-.1c.1 1 .4 2 .9 2.9.3.6 1.1 1.1 1.3 1.1.5.1 1.5.2 2.5 0 .1 0 .3 0 .5-.1 1.5-.2 3.5-.5 5.9-.8.1.2 1.2.5 1.2.5" class="uwu__data-blue_svg__st3"/>
  <path d="M620.3 202.6c.9 2.7-1.4 5-4 5-1.7 0-3.5-.5-4.9-1.5-3-1.9-3.7-6.3-1.7-9.2.3-.4.6-.8 1-1.1 0 .8-.1 1.3.3 2 0-.6.4-2.2 1-2.7.4 1.2 1.7 2.9 4 3.7-.4-.4-.2-1.4 0-2 .1.5 2.7 2.2 3.4 2.5-.2 0 .9 3.3.9 3.3" class="uwu__data-blue_svg__st3"/>
  <path d="M608 198.6q-.3 1.5 0 3c.2.7.4 1.4.8 2 .2.3.4.5.6.8.7.8 1.6 1.4 2.5 1.7.5.2 1 .3 1.5.4.2 0 .5.1.8.1s.5.1.8.1c-.2-.1-.5-.1-.7-.2s-.5-.1-.7-.2c-.5-.2-.9-.3-1.4-.5-.9-.4-1.7-1-2.4-1.7-.2-.2-.3-.4-.5-.6-.4-.6-.7-1.3-.9-1.9l-.3-1.5c0-.3 0-.6-.1-.8z" class="uwu__data-blue_svg__st3"/>
  <path d="M611 201.6c0 .7.2 1.5.5 2.2s.6 1.4 1.1 2 1.1 1.1 1.7 1.4c.7.4 1.4.5 2.1.6-.2-.1-.4-.1-.5-.2-.2 0-.3-.1-.5-.2l-.5-.2-.5-.3c-.6-.4-1.2-.8-1.6-1.4s-.8-1.2-1.1-1.8c-.3-.7-.5-1.4-.7-2.1M620 203.3c.2.7.3 1.4.2 2-.1.3-.2.6-.3 1-.1.2-.2.3-.3.5-.1.1-.2.3-.3.4.2-.1.3-.2.4-.3l.4-.4c.2-.3.4-.7.4-1 .1-.4.1-.8 0-1.1-.1-.5-.3-.8-.5-1.1M624.9 207.1c.3 4.2.7 8.6.7 8.6l.9-1.1 1.1-2.8-.5-5.3c0-.1-2.3 0-2.2.6" class="uwu__data-blue_svg__st3"/>
  <path d="M620.9 203.1c.2.7.3 1.4.2 2-.1.3-.2.6-.3 1-.1.2-.2.3-.3.5-.1.1-.2.3-.3.4.2-.1.3-.2.4-.3l.4-.4c.2-.3.4-.7.4-1 .1-.4.1-.8 0-1.1-.1-.4-.3-.8-.5-1.1" class="uwu__data-blue_svg__st3"/>
  <path d="M574.9 254.8c0 .5 4.1 11.6 4.6 13.2 1.7 5 8.1-9.4 9.2-11.2 1.4-3.7 5.1-4.2 5.1-4.2l-.4 13.7s-6.4 10.7-11.5 15.3c-8 7.2-10.7-23.8-11.7-24.5-.9-.7.1-.8-1.1-1.3-1-.4-2.4-1.7-4.7-2.2-1.6-.7-2.1-1.8-2.1-1.8-.9-1-1.2-2.3-1.2-3.6 0-.6.1-1.1.2-1.6s.3-.9.5-1.2c.2-.4.4-.6.7-.6.4 0 .7.6 1.1 1.3 0 0 1.4 1.8 1.8 2.5.3.2.6.4 1 .5.7.2 1.7.2 2.4-.1.3-.1.5-.3.7-.4.2-.2.4-.4.4-.7.1-.4.1-.8-.1-1.3q-.15-.45 0-.6c.1-.1.3-.2.6-.1.4.1.8.2 1.2.5.8.6 1.7 1.6 2.3 3.1-.1.2 1.1 2.4 1 5.3" class="uwu__data-blue_svg__st1"/>
  <path d="M578.4 263.8c-1.5-4.1-3.5-9.7-3.5-10.1.1-4.1-1.5-6.5-3.1-7.5q-.75-.6-1.5-.6c-.5-.1-.9 0-1.1.3s-.3.6-.1 1.1c.2.4.2.7.1.9s-.2.3-.3.5c-.1.1-.3.2-.5.3-.6.3-1.5.3-2.1.1-1.1-.3-1.8-1.6-2.3-2.6s-.9-1.8-1.7-1.8c-.4 0-.8.3-1.1.8-.2.4-.4.8-.5 1.3s-.2 1.1-.2 1.7c0 1.8.7 3.8 2.5 4.9.6.4 1.2.6 1.9.8.4.1.8.3 1.2.4l1.8.9c.6.3 1.1.7 1.5 1.1.1.1.5 1.9.9 4.5 1.1 6.4 3.1 17.4 6.5 21.2 1.5 1.7 3.2 2 5.3.2 5.5-4.9 12.3-16.2 12.3-16.3v-.1l.4-14.6v-.3h-.3s-4.1.5-5.7 4.6c-.2.3-.5.9-.9 1.7-1.7 3.4-5.2 10.4-7.3 11.1-.4.1-.8-.1-1.1-.9.1-.2-.5-1.7-1.1-3.6m-4-10.1c0 .4 2 6.2 3.5 10.3.7 1.8 1.2 3.3 1.4 3.9.4 1.1 1 1.5 1.7 1.2 2.3-.8 5.8-7.9 7.6-11.4.4-.8.7-1.4.9-1.7 1.2-3.2 4-4 4.9-4.2L594 266c-.5.9-6.9 11.4-12.1 16.1-1.8 1.6-3.3 1.3-4.6-.2-3.3-3.7-5.2-14.6-6.3-20.9-.5-2.7-.8-4.6-1.1-4.9-.5-.4-1-.7-1.6-1.1s-1.2-.7-1.8-1c-.4-.2-.9-.3-1.3-.5-.6-.2-1.2-.4-1.8-.7-1.7-1-2.3-2.8-2.3-4.5 0-.6.1-1.1.2-1.6s.3-.9.5-1.2c.2-.4.4-.6.7-.6.4 0 .8.7 1.2 1.5.6 1.1 1.3 2.5 2.7 2.9.7.2 1.7.2 2.4-.1.3-.1.5-.3.7-.4.2-.2.4-.4.4-.7.1-.4.1-.8-.1-1.3q-.15-.45 0-.6c.1-.1.3-.2.6-.1.4.1.8.2 1.2.5 1.4 1 2.9 3.3 2.8 7.1" class="uwu__data-blue_svg__st2"/>
  <path d="M642.5 421.6h7.7v5.5h-7.7z" class="uwu__data-blue_svg__st1"/>
  <path d="M650.2 427.5h-8v-6.1h8.3v6.1zm-7.4-.7h7.1V422h-7.1z" class="uwu__data-blue_svg__st3"/>
  <path d="M596.3 422h7.7v5.5h-7.7z" class="uwu__data-blue_svg__st1"/>
  <path d="M604.1 427.8H596v-6.1h8.3v6.1zm-7.4-.6h7.1v-4.9h-7.1z" class="uwu__data-blue_svg__st3"/>
  <path d="m595.1 422.9 2.2-126.3h38l16 126.3h-9.4L616 322.4l-10.9 100.5z" class="uwu__data-blue_svg__st4"/>
  <path d="m651 420.7.3 2.2h-9.4l-.6-2.2z" class="uwu__data-blue_svg__st4"/>
  <path d="M636.9 301.2s-4.5-6.5.2-38.6l2.6 6.3 14-7.5-10.3-17.6c-1-1.7-.6-1.6-2.4-2.3l-16.3-6.3c-1.1 1.4-3.7 2.3-6.6 2.3s-5.4-1-6.5-2.4l-15.2 4.1c-2 .5-1.5.3-2.4 2.1l-11.9 23.9 12.3 5.3 1.5-8.2s-.8 33.4.4 38.8z" class="uwu__data-blue_svg__st5"/>
  <path d="M596.8 260.5s-.9.8-.7 1.9c-.3-1.4.1-2.3.1-2.3zM639 257.7s-2.6 3.4-1.9 4.9c-.8-2 1.3-5.3 1.3-5.3zM635.5 295.8c-.2-1.1-.3-2.4-.4-4-.3 0-.6-.1-.9-.1-1.1 0-2 .4-2.9.8-.4.2-1.1.5-1.5.5s-1.1-.3-1.5-.5c-1-.4-1.9-.8-2.9-.8-1.1 0-2 .4-2.9.8-.4.2-1.1.5-1.5.5s-1.1-.3-1.5-.5c-1-.4-1.9-.8-2.9-.8-1.1 0-2 .4-2.9.8-.4.2-1.1.5-1.5.5s-1.1-.3-1.5-.5c-1-.4-1.9-.8-2.9-.8s-2 .4-2.9.8c-.4.2-1.1.5-1.5.5s-1.1-.3-1.5-.5c-1-.4-1.9-.8-2.9-.8-.9 0-1.8.3-2.6.6 0 1.4.1 2.8.1 4 .3-.1.7-.2 1-.4.4-.2 1.1-.5 1.5-.5s1.1.3 1.5.5c1 .4 1.9.8 2.9.8 1.1 0 2-.4 2.9-.8.4-.2 1.1-.5 1.5-.5s1.1.3 1.5.5c1 .4 1.9.8 2.9.8 1.1 0 2-.4 2.9-.8.4-.2 1.1-.5 1.5-.5s1.1.3 1.5.5c1 .4 1.9.8 2.9.8s2-.4 2.9-.8c.4-.2 1.1-.5 1.5-.5s1.1.3 1.5.5c1 .4 1.9.8 2.9.8s2-.4 2.9-.8c.4-.2 1.1-.5 1.5-.5s.9.2 1.3.4M627 236.1l-2.3-.9c-1.1 1.4-3.7 2.3-6.6 2.3s-5.4-1-6.5-2.4l-2.6.7c.8 2.4 4.5 4.3 9 4.3 4.4 0 8-1.7 9-4M583.8 262.1l-1.6 3.1 12.4 5.4.6-3.3z" class="uwu__data-blue_svg__st6"/>
  <path d="m649.9 261.8 5 9.8s5 10.4-4.8 10.9-29.2 4.1-29.2 4.1-1.8-1.8-4.3.3-7.1-5.8-.3-6.7c0 0 3.6-.5 5.6 2.4l21.5-7.8s2.9-.1 1.3-2.9c-1.6-2.7-3.4-5.3-3.4-5.3z" class="uwu__data-blue_svg__st1"/>
  <path d="m650.2 261.7 5 9.8s5.2 10.8-5.1 11.4c-9.8.5-29.1 4.1-29.2 4.1h-.2l-.1-.1s-1.6-1.6-3.9.3c-.8.6-1.7.5-2.5 0-.6-.4-1.2-1.2-1.6-2-.3-.8-.5-1.8-.2-2.6.4-1.2 1.5-2.3 3.7-2.5 0 0 3.6-.5 5.7 2.3l21.3-7.7h.1s2.3-.1 1-2.4c-1.6-2.7-3.3-5.2-3.4-5.3l-.2-.3.3-.2 8.7-4.9.3-.2zm4.4 10-4.8-9.5-8.1 4.6c.5.7 1.9 2.8 3.2 5 1.7 2.9-1.1 3.3-1.5 3.3l-21.5 7.7-.2.1-.1-.2c-1.9-2.7-5.3-2.2-5.3-2.2-2 .3-2.9 1.1-3.2 2.1-.2.7-.1 1.5.2 2.2s.8 1.4 1.3 1.7c.6.4 1.2.5 1.7.1 2.4-1.9 4.1-.8 4.6-.4 1.8-.3 19.8-3.6 29.1-4 9.4-.5 4.6-10.4 4.6-10.5" class="uwu__data-blue_svg__st2"/>
  <path d="m638.5 266 1.3 3 14-7.6-1.9-3.1zM636.9 301.2s-.5-.7-1-2.7h-39.8q.15 1.8.3 2.7z" class="uwu__data-blue_svg__st6"/>
  <path d="M605.3 426.6v10h-24.4c-1.8-3.3 2.3-3.9 4.4-4.6 3.8-1.4 8.6-4.2 9.9-5.3h10.1zM651.2 426.6v10h-17.7c-1.3-3.3 1.7-3.9 3.2-4.6 2.7-1.4 3.8-4.1 4.7-5.2z" class="uwu__data-blue_svg__st4"/>
  <path d="m470.5 186.5.2 7.6h-7.1l.2-3v-3.6z" class="uwu__data-blue_svg__st1"/>
  <path d="m470.3 186.7.2 7.2-6.7-.1.1-2.8.1-3.4zm.5 7.4-.2-7.6v-.2h-.2l-6.6 1h-.2v.2l-.1 3.6-.1 3v.2h.2l7.1.1h.2z" class="uwu__data-blue_svg__st2"/>
  <path d="M464.7 173.9c.2-.2 7.6-.2 6.6 7.8 0 0 1.9-1.2 1.5 1.8 0 0 0 1-1.5 1 0 0-1.7 6.7-6.1 6.1s-4.1-4.8-4.1-4.8v-7.2c.1-.1-.8-5 3.6-4.7" class="uwu__data-blue_svg__st1"/>
  <path d="M464.9 174h1.1c.5.1 1.1.2 1.7.4s1.3.6 1.8 1.1c1.2 1.1 2 3 1.7 6v.4l.3-.2s1.6-1 1.2 1.6c0 0 0 .9-1.3.8h-.1v.1s-1.6 6.6-5.9 6c-4.2-.6-3.9-4.6-3.9-4.6v-7.2s-.8-4.7 3.4-4.5zm1.1-.3c-.6-.1-1 0-1.2 0-4.5-.3-3.8 4.5-3.8 4.9v7.2c0 .2-.2 4.4 4.2 5 4.2.6 6-5.1 6.2-6.1 1.4 0 1.5-1 1.5-1.1.4-2.5-.8-2.3-1.4-2.1.3-3-.6-4.9-1.8-6-.6-.6-1.3-1-1.9-1.2-.7-.4-1.3-.5-1.8-.6" class="uwu__data-blue_svg__st2"/>
  <path d="M461 181.6c.3-.1.2 0 .4-.2v-2.3c.5-1.5 1.5-2.5 1.5-2.5-.3-.3-.4-.4-.5-.7-.3-.5-.5-.9-.6-1.5-.5.4-.8 1-1 1.4-.1.3-.2.6-.2.9-.1 1.1.1 4.1.4 4.9" class="uwu__data-blue_svg__st3"/>
  <path d="M468.3 176.3c.3 1.1 1.5 1.9 2.6 2.4.1.7.6 2.5.7 2.8.3-.1.7-.2 1-.1 0 0 .1 0 .1.1.1-.6.6-4.2.5-4.4 0-.2-.3-.9-1.1-1.8.4.2.5.1.5.1s-.2-.1-.9-.9-1.7-1.6-3.2-1.8c-.4-.1-.8 0-1.4 0-1.5.2-3.5.8-4.4 1-.4.1-.7.4-1.1.7 0 .5.2 1.1.5 1.6.2.3.6.6.7.6.3.1.8.1 1.4 0h.2c.8-.1 1.9-.3 3.2-.4 0-.1.6.1.7.1" class="uwu__data-blue_svg__st3"/>
  <path d="M468.2 175c.5 1.4-.7 2.7-2.2 2.7-.9 0-1.9-.3-2.7-.8-1.6-1-2-3.4-.9-4.9.2-.2.3-.4.5-.6 0 .4-.1.7.1 1.1 0-.3.2-1.2.6-1.5.2.6.9 1.6 2.1 2-.2-.2-.1-.8 0-1.1 0 .3 1.4 1.2 1.8 1.4.2-.1.7 1.7.7 1.7" class="uwu__data-blue_svg__st3"/>
  <path d="M461.7 172.9c-.1.5-.1 1.1 0 1.6.1.4.2.7.4 1.1.1.1.2.3.3.4.4.4.8.7 1.4.9.3.1.5.2.8.2.1 0 .3 0 .4.1h.4c-.1 0-.3-.1-.4-.1s-.3-.1-.4-.1c-.3-.1-.5-.2-.7-.3-.5-.2-.9-.5-1.3-.9l-.3-.3c-.2-.3-.4-.7-.5-1s-.1-.5-.2-.8v-.5c0-.1 0-.2.1-.3" class="uwu__data-blue_svg__st3"/>
  <path d="M463.2 174.4c0 .4.1.8.2 1.2s.3.7.6 1.1c.2.3.6.6.9.8q.6.3 1.2.3c-.1 0-.2-.1-.3-.1s-.2-.1-.3-.1l-.3-.1-.3-.1c-.3-.2-.6-.5-.9-.8-.2-.3-.4-.6-.6-1 .1-.4-.1-.8-.2-1.2M468.1 175.4c.1.4.2.7.1 1.1 0 .2-.1.3-.2.5 0 .1-.1.2-.1.2-.1.1-.1.2-.2.2.1-.1.2-.1.2-.2l.2-.2c.1-.2.2-.4.2-.6v-.6c0-.1-.1-.3-.2-.4M470.7 177.4l.4 4.6.5-.6.6-1.5-.3-2.9s-1.2.1-1.2.4M468.6 175.3c.1.4.2.7.1 1.1 0 .2-.1.3-.2.5 0 .1-.1.2-.1.2 0 .1-.1.2-.2.2.1-.1.2-.1.2-.2l.2-.2c.1-.2.2-.4.2-.6v-.6c0-.1-.1-.3-.2-.4" class="uwu__data-blue_svg__st3"/>
  <path d="M443.8 203.1c0 .3 2.2 6.3 2.5 7.1.9 2.7 4.4-5.1 4.9-6.1.7-2 2.8-2.2 2.8-2.2l-.2 7.4s-3.4 5.8-6.2 8.2c-4.3 3.9-5.8-12.8-6.3-13.2s0-.4-.6-.7c-.5-.2-1.3-.9-2.5-1.2-.9-.4-1.1-.9-1.1-.9-.5-.6-.7-1.3-.7-1.9 0-.3 0-.6.1-.8q.15-.45.3-.6c.1-.2.2-.3.4-.3s.4.3.6.7c0 0 .7 1 1 1.4.2.1.3.2.5.3.4.1.9.1 1.3-.1.1-.1.3-.1.4-.2s.2-.2.2-.4c.1-.2 0-.4-.1-.7q-.15-.15 0-.3c.1-.1.2-.1.3-.1.2 0 .4.1.7.3.4.3.9.8 1.2 1.7-.1-.1.6 1 .5 2.6" class="uwu__data-blue_svg__st1"/>
  <path d="M443.5 202.5c0 .2 1.1 3.3 1.9 5.5.4 1 .6 1.8.7 2.1.2.6.5.8.9.7 1.2-.4 3.1-4.2 4.1-6.1.2-.4.4-.8.5-.9.6-1.7 2.2-2.2 2.7-2.3l-.2 7.6c-.3.5-3.7 6.2-6.5 8.7-1 .9-1.8.7-2.5-.1-1.8-2-2.8-7.9-3.4-11.3-.3-1.5-.4-2.5-.6-2.6-.3-.2-.5-.4-.9-.6-.3-.2-.6-.4-1-.5-.2-.1-.5-.2-.7-.2-.3-.1-.7-.2-.9-.4-.9-.6-1.2-1.5-1.2-2.4 0-.3 0-.6.1-.8q.15-.45.3-.6c.1-.2.2-.3.4-.3s.4.4.7.8c.3.6.7 1.3 1.4 1.5.4.1.9.1 1.3-.1.1-.1.3-.1.4-.2s.2-.2.2-.4c.1-.2 0-.4-.1-.7q-.15-.15 0-.3c.1-.1.2-.1.3-.1.2 0 .4.1.7.3.7.4 1.5 1.6 1.4 3.7m2.2 5.5c-.8-2.2-1.9-5.2-1.9-5.4.1-2.2-.8-3.5-1.6-4-.3-.2-.6-.3-.8-.3-.3 0-.5 0-.6.2q-.15.15 0 .6c.1.2.1.4.1.5s-.1.2-.2.2c-.1.1-.2.1-.3.2-.3.1-.8.2-1.1.1-.6-.2-1-.8-1.3-1.4-.3-.5-.5-1-.9-1-.2 0-.4.2-.6.4-.1.2-.2.4-.3.7s-.1.6-.1.9c0 1 .4 2 1.4 2.6.3.2.7.3 1 .4.2.1.4.1.7.2s.7.3.9.5c.3.2.6.4.8.6.1.1.2 1 .5 2.4.6 3.4 1.6 9.4 3.5 11.4.8.9 1.7 1.1 2.9.1 2.9-2.6 6.6-8.7 6.6-8.8v-.1l.2-7.9v-.2h-.2s-2.2.2-3 2.5c-.1.2-.3.5-.5.9-.9 1.9-2.8 5.6-3.9 6-.2.1-.4-.1-.6-.5-.1-.1-.4-.9-.7-1.8" class="uwu__data-blue_svg__st2"/>
  <path d="M480.2 292.9h4.2v3h-4.2z" class="uwu__data-blue_svg__st1"/>
  <path d="M484.3 296.1H480v-3.4h4.6v3.4zm-3.9-.4h3.8v-2.6h-3.8z" class="uwu__data-blue_svg__st3"/>
  <path d="M455.3 293.1h4.2v3h-4.2z" class="uwu__data-blue_svg__st1"/>
  <path d="M459.5 296.3h-4.4V293h4.6v3.4h-.2zm-4-.4h3.8v-2.6h-3.8z" class="uwu__data-blue_svg__st3"/>
  <path d="m454.7 293.6 1.2-68h20.4l8.7 68h-5.1l-14-54.1-5.8 54.1z" class="uwu__data-blue_svg__st4"/>
  <path d="m484.8 292.4.2 1.2h-5.1l-.3-1.2z" class="uwu__data-blue_svg__st4"/>
  <path d="M477.2 228.1s-2.4-3.5.1-20.8l1.4 3.4 7.6-4.1-5.5-9.5c-.5-.9-.3-.9-1.3-1.2l-8.8-3.4c-.6.8-2 1.3-3.5 1.3s-2.9-.5-3.5-1.3l-8.2 2.2c-1.1.3-.8.2-1.3 1.2l-6.4 12.9 6.6 2.9.8-4.4s-.4 18 .2 20.9z" class="uwu__data-blue_svg__st5"/>
  <path d="M455.6 206.2s-.5.4-.4 1c-.1-.7 0-1.2 0-1.2zM478.3 204.7s-1.4 1.8-1 2.6c-.4-1.1.7-2.9.7-2.9zM476.4 225.2c-.1-.6-.2-1.3-.2-2.2h-.5c-.6 0-1.1.2-1.6.4-.2.1-.6.3-.8.3s-.6-.2-.8-.3c-.5-.2-1-.4-1.6-.4s-1.1.2-1.6.4c-.2.1-.6.3-.8.3s-.6-.2-.8-.3c-.5-.2-1-.4-1.6-.4s-1.1.2-1.6.4c-.2.1-.6.3-.8.3s-.6-.2-.8-.3c-.5-.2-1-.4-1.6-.4s-1.1.2-1.6.4c-.2.1-.6.3-.8.3s-.6-.2-.8-.3c-.5-.2-1-.4-1.6-.4-.5 0-1 .2-1.4.3 0 .8 0 1.5.1 2.1.2-.1.4-.1.5-.2.2-.1.6-.3.8-.3s.6.2.8.3c.5.2 1 .4 1.6.4s1.1-.2 1.6-.4c.2-.1.6-.3.8-.3s.6.2.8.3c.5.2 1 .4 1.6.4s1.1-.2 1.6-.4c.2-.1.6-.3.8-.3s.6.2.8.3c.5.2 1 .4 1.6.4s1.1-.2 1.6-.4c.2-.1.6-.3.8-.3s.6.2.8.3c.5.2 1 .4 1.6.4s1.1-.2 1.6-.4c.2-.1.6-.3.8-.3.2.1.5.2.7.3M471.8 193l-1.2-.5c-.6.8-2 1.3-3.5 1.3s-2.9-.5-3.5-1.3l-1.4.4c.5 1.3 2.4 2.3 4.8 2.3s4.3-.9 4.8-2.2M448.6 207l-.8 1.7 6.6 2.9.3-1.7z" class="uwu__data-blue_svg__st6"/>
  <path d="M457.3 209.8h6.9c.4 0 .5.3.7.7l3.6 10.1c.1.3-.3.7-.7.7h-6.9c-.4 0-.5-.3-.7-.7l-3.6-10.1c-.1-.4.3-.7.7-.7" class="uwu__data-blue_svg__st1"/>
  <path d="M457.3 209.7h6.9c.2 0 .4.1.5.2s.2.3.3.5l3.6 10.1v.2c0 .1-.1.3-.2.4s-.2.2-.4.2c-.1 0-.2.1-.3.1h-6.9c-.2 0-.4-.1-.5-.2s-.2-.3-.3-.5l-3.6-10.1v-.2c0-.1.1-.3.2-.4s.2-.2.4-.2c.1-.1.2-.1.3-.1m6.8.2H457c-.1 0-.2.1-.3.2s-.1.1-.1.2v.1l3.6 10.1c.1.2.1.3.2.4s.2.2.3.2h7.1c.1 0 .2-.1.3-.2s.1-.1.1-.2v-.1l-3.6-10.1c-.1-.2-.1-.3-.2-.4 0-.1-.1-.2-.3-.2" class="uwu__data-blue_svg__st2"/>
  <path d="m484.2 206.9 2.7 5.3s2.7 5.6-2.6 5.9-15.7 2.2-15.7 2.2-1-1-2.3.2c-1.4 1.1-3.8-3.1-.2-3.6 0 0 1.9-.3 3 1.3l11.6-4.2s1.5-.1.7-1.5c-.9-1.5-1.8-2.8-1.8-2.8z" class="uwu__data-blue_svg__st1"/>
  <path d="m484.4 206.8 2.7 5.3s2.8 5.8-2.7 6.1c-5.3.3-15.7 2.2-15.7 2.2h-.1l-.1-.1s-.9-.9-2.1.2c-.4.3-.9.3-1.3 0-.3-.2-.7-.6-.8-1.1-.2-.5-.3-1-.1-1.4.2-.7.8-1.2 2-1.4 0 0 1.9-.3 3.1 1.2l11.5-4.1s1.3-.1.5-1.3c-.9-1.5-1.8-2.8-1.8-2.8l-.1-.2.2-.1 4.7-2.6.2-.1zm2.3 5.4-2.6-5.1-4.4 2.5c.3.4 1 1.5 1.7 2.7.9 1.6-.6 1.8-.8 1.8l-11.6 4.2h-.1l-.1-.1c-1-1.5-2.8-1.2-2.9-1.2-1.1.1-1.6.6-1.7 1.1-.1.4-.1.8.1 1.2s.4.7.7.9.7.3.9 0c1.3-1 2.2-.4 2.5-.2 1-.2 10.7-1.9 15.7-2.2 5.2-.2 2.6-5.6 2.6-5.6" class="uwu__data-blue_svg__st2"/>
  <path d="m478.1 209.1.6 1.6 7.6-4-1-1.7zM477.2 228.1s-.3-.4-.5-1.5h-21.4c0 .6.1 1.1.2 1.5z" class="uwu__data-blue_svg__st6"/>
  <path d="M460.2 295.6v5.4H447c-1-1.8 1.3-2.1 2.4-2.5 2-.7 4.6-2.3 5.3-2.9zM484.9 295.6v5.4h-9.5c-.7-1.8.9-2.1 1.7-2.5 1.5-.7 2-2.2 2.5-2.8z" class="uwu__data-blue_svg__st4"/>
  <path d="M441.2 301H484c11.1-2.1 2.3-11.3 1.3-16.3-7.6-37.7 50.3-37.6 42.6.1-1 4.9-9.8 14.1 1.3 16.3H572c1.3 0 2.4 1.1 2.4 2.4v130.8c0 1.3-1.1 2.4-2.4 2.4H441.2c-1.3 0-2.4-1.1-2.4-2.4v-42.8c2.1-11.1 11.3-2.3 16.3-1.3 37.7 7.7 37.7-50.2.1-42.6-5 1-14.2 9.8-16.3-1.3v-42.8c-.1-1.5 1-2.5 2.3-2.5" class="uwu__data-blue_svg__st5"/>
  <path d="M282.6 303.4v42.8c2.1 11.1 11.3 2.3 16.3 1.3 37.7-7.6 37.6 50.3-.1 42.6-4.9-1-14.1-9.8-16.3 1.3v42.8c0 1.3-1.1 2.4-2.4 2.4H149.4c-1.3 0-2.4-1.1-2.4-2.4V303.4c0-1.3 1.1-2.4 2.4-2.4h42.8c11.1 2.1 2.3 11.3 1.3 16.3-7.7 37.7 50.2 37.7 42.6.1-1-5-9.8-14.2 1.3-16.3h42.8c1.3-.1 2.4.9 2.4 2.3" class="uwu__data-blue_svg__st4"/>
  <path d="M280.2 301h-42.8c-11.1 2.1-2.3 11.3-1.3 16.3 7.6 37.7-50.3 37.6-42.6-.1 1-4.9 9.8-14.1-1.3-16.3h-42.8c-1.3 0-2.4-1.1-2.4-2.4V167.8c0-1.3 1.1-2.4 2.4-2.4h130.8c1.3 0 2.4 1.1 2.4 2.4v42.8c-2.1 11.1-11.3 2.3-16.3 1.3-37.7-7.7-37.7 50.2-.1 42.6 5-1 14.2-9.8 16.3 1.3v42.8c.1 1.3-1 2.4-2.3 2.4" class="uwu__data-blue_svg__st5"/>
  <path d="M315.9 197.6v-42.8c-2.1-11.1-11.3-2.3-16.3-1.3-37.7 7.6-37.6-50.3.1-42.6 4.9 1 14.1 9.8 16.3-1.3V66.8c0-1.3 1.1-2.4 2.4-2.4h130.8c1.3 0 2.4 1.1 2.4 2.4v130.8c0 1.3-1.1 2.4-2.4 2.4h-42.8c-11.1-2.1-2.3-11.3-1.3-16.3 7.7-37.7-50.2-37.7-42.6-.1 1 5 9.8 14.2-1.3 16.3h-42.8c-1.5.1-2.5-1-2.5-2.3M369.1 287.3c.5-.7.5-1.4.7-2.2.1 4.9 4.6 6.5 8.7 9.7 9.9-7.3 12.3-12.3 10.3-26-.4-2.9-1.5-5.8-3.3-6.9-3.9-2.4-3.6-3.6-7-3.4-5.5.2-8.9 5.5-10.2 10.5-1.7 6.3-.3 12.1.8 18.3" class="uwu__data-blue_svg__st4"/>
  <path d="M381.6 280.4c.2-.2.4-.3.6-.6 1.1-1.1 2.3-2.9 2.7-4.9l-3.1-11.4-6 3.7v-1.3c-5 4.2-5.3 10.2-.6 14.4l-2.4 10.3 10.9.1z" class="uwu__data-blue_svg__st7"/>
  <path d="m384.5 291.3-12.4-.1 2.5-10.7c-2.2-2-3.3-4.6-3.3-7.2 0-2.9 1.5-5.7 4.2-7.9l1-.8v1.6l5.8-3.5 3.3 12.3v.1c-.4 1.8-1.5 3.8-2.9 5.2l-.4.4zm-10.9-1.3 9.4.1-2.1-9.9.3-.2c.2-.1.4-.3.6-.5.9-.9 2.1-2.6 2.6-4.4l-2.8-10.5-6.3 3.8v-1c-1.8 1.8-2.7 3.9-2.8 6.1 0 2.4 1.1 4.6 3.2 6.5l.3.2z" class="uwu__data-blue_svg__st2"/>
  <path d="M410.4 302.2c0 .4-3 8.6-3.4 9.8-1.2 3.7-6-7-6.8-8.3-1-2.8-3.8-3.1-3.8-3.1l.3 10.2s4.7 7.9 8.5 11.3c5.9 5.3 7.9-17.6 8.6-18.1s0-.6.8-1c.7-.3 1.8-1.3 3.5-1.6 1.2-.5 1.6-1.3 1.6-1.3.7-.8.9-1.7.9-2.6 0-.4-.1-.8-.1-1.2l-.3-.9c-.2-.3-.3-.4-.5-.4-.3 0-.5.4-.8 1 0 0-1 1.4-1.3 1.9-.2.2-.4.3-.7.4-.5.2-1.2.1-1.8-.1-.2-.1-.4-.2-.5-.3s-.3-.3-.3-.5c-.1-.3-.1-.6.1-1 .1-.2.1-.3 0-.4s-.2-.1-.5-.1-.6.2-.9.4c-.6.4-1.3 1.2-1.7 2.3-.1-.2-1 1.4-.9 3.6" class="uwu__data-blue_svg__st1"/>
  <path d="M410.8 301.4c0 .3-1.5 4.6-2.6 7.6-.5 1.4-.9 2.5-1 2.9-.3.8-.7 1.1-1.3.9-1.7-.6-4.3-5.8-5.6-8.4-.3-.6-.5-1-.7-1.3-.9-2.3-3-3-3.6-3.1l.3 10.5c.4.6 5.1 8.5 9 11.9 1.3 1.2 2.4.9 3.4-.1 2.4-2.7 3.9-10.8 4.7-15.5.4-2 .6-3.4.8-3.6.4-.3.7-.5 1.2-.8.4-.3.9-.5 1.4-.7l.9-.3c.5-.1.9-.3 1.3-.5 1.3-.8 1.7-2.1 1.7-3.3 0-.4-.1-.8-.1-1.2l-.3-.9c-.2-.3-.3-.4-.5-.4-.3 0-.6.5-.9 1.1-.4.8-1 1.8-2 2.1-.5.2-1.2.1-1.8-.1-.2-.1-.4-.2-.5-.3s-.3-.3-.3-.5c-.1-.3-.1-.6.1-1 .1-.2.1-.3 0-.4s-.2-.1-.5-.1-.6.2-.9.4c-1.2.6-2.3 2.2-2.2 5.1m-3 7.4c1.1-3 2.6-7.2 2.6-7.4-.1-3 1.1-4.8 2.3-5.5.4-.3.8-.4 1.1-.5.4-.1.7 0 .8.2.2.2.2.5 0 .8-.1.3-.1.5-.1.7 0 .1.1.2.2.3s.2.2.4.2c.5.2 1.1.2 1.5.1.8-.2 1.3-1.2 1.7-1.9s.7-1.3 1.2-1.3c.3 0 .6.2.8.6.2.3.3.6.4 1s.2.8.2 1.3c0 1.3-.5 2.8-1.9 3.6-.4.3-.9.4-1.4.6l-.9.3c-.5.2-.9.4-1.3.7s-.8.5-1.1.8c-.1.1-.3 1.4-.7 3.4-.8 4.7-2.3 12.9-4.8 15.7-1.1 1.2-2.4 1.5-3.9.1-4.1-3.6-9.1-12-9.1-12v-.1l-.3-10.8v-.2h.2s3 .3 4.2 3.4c.1.2.4.7.7 1.3 1.3 2.5 3.9 7.7 5.4 8.2.3.1.6-.1.8-.7.1-.4.5-1.5 1-2.9" class="uwu__data-blue_svg__st2"/>
  <path d="M354.7 425.5h5.7v4.1h-5.7z" class="uwu__data-blue_svg__st1"/>
  <path d="M354.7 429.8h5.9v-4.5h-6.1v4.5zm5.5-.4h-5.3v-3.6h5.3z" class="uwu__data-blue_svg__st3"/>
  <path d="M388.8 425.8h5.7v4.1h-5.7z" class="uwu__data-blue_svg__st1"/>
  <path d="M388.8 430.1h5.9v-4.5h-6.1v4.5zm5.5-.5H389V426h5.3z" class="uwu__data-blue_svg__st3"/>
  <path d="m395.4 426.5-1.6-93.4h-28l-11.9 93.4h6.9l19.2-74.3 8 74.3z" class="uwu__data-blue_svg__st4"/>
  <path d="m354.1 424.8-.2 1.7h6.9l.5-1.7z" class="uwu__data-blue_svg__st4"/>
  <path d="M364.5 336.5s3.3-4.8-.1-28.5l-2 4.7-10.4-5.6 7.6-13c.7-1.2.5-1.2 1.8-1.7l12.1-4.7c.8 1 2.7 1.7 4.9 1.7 2.1 0 4-.7 4.8-1.8l11.2 3c1.5.4 1.1.2 1.8 1.6l8.8 17.7-9.1 3.9-1.1-6.1s.6 24.7-.3 28.7z" class="uwu__data-blue_svg__st5"/>
  <path d="M394.2 306.4s.7.6.5 1.4c.2-1 0-1.7 0-1.7zM363 304.4s1.9 2.5 1.4 3.6c.6-1.4-1-3.9-1-3.9zM403.8 307.6l1.1 2.3-9 4-.5-2.4z" class="uwu__data-blue_svg__st6"/>
  <path d="M391.9 311.4h-9.4c-.5 0-.7.4-.9.9l-5 13.8c-.2.5.4.9.9.9h9.4c.5 0 .7-.4.9-.9l5-13.8c.2-.5-.4-.9-.9-.9" class="uwu__data-blue_svg__st1"/>
  <path d="M391.9 311.2h-9.4c-.3 0-.5.1-.7.3s-.3.4-.4.7l-5 13.8v.2c0 .2.1.4.2.5s.3.2.5.3c.1 0 .3.1.4.1h9.4c.3 0 .5-.1.7-.3s.3-.4.4-.7l5-13.8v-.2c0-.2-.1-.4-.2-.5s-.3-.2-.5-.3c-.1-.1-.3-.1-.4-.1m-9.4.3h9.4c.1 0 .2 0 .3.1.1 0 .3.1.4.2s.1.2.1.3v.1l-5 13.8-.3.6c-.1.1-.3.2-.4.2h-9.4c-.1 0-.2 0-.3-.1-.1 0-.3-.1-.4-.2s-.1-.2-.1-.3v-.1l5-13.8.3-.6c0-.1.2-.2.4-.2" class="uwu__data-blue_svg__st2"/>
  <path d="m354.9 307.4-3.7 7.2s-3.7 7.7 3.6 8.1 21.6 3 21.6 3 1.3-1.3 3.2.2c1.9 1.6 5.3-4.3.2-4.9 0 0-2.6-.4-4.1 1.7l-15.9-5.7s-2.1-.1-.9-2.1 2.5-3.9 2.5-3.9z" class="uwu__data-blue_svg__st1"/>
  <path d="m354.7 307.3-3.7 7.2s-3.8 8 3.8 8.4c7.2.4 21.5 3 21.6 3h.1l.1-.1s1.2-1.2 2.9.2c.6.5 1.2.4 1.8 0 .5-.3.9-.9 1.2-1.5s.4-1.3.2-2c-.3-.9-1.1-1.7-2.7-1.9 0 0-2.6-.4-4.2 1.7l-15.8-5.7h-.1s-1.7-.1-.8-1.8c1.2-2 2.5-3.9 2.5-3.9l.1-.2-.2-.1-6.4-3.6-.2-.1zm-3.2 7.4 3.6-7 6 3.4c-.4.5-1.4 2.1-2.4 3.7-1.3 2.2.8 2.4 1.1 2.5l15.9 5.7.2.1.1-.1c1.4-2 3.9-1.6 3.9-1.6 1.4.2 2.1.8 2.4 1.6.2.5.1 1.1-.1 1.6s-.6 1-1 1.3-.9.4-1.3 0c-1.7-1.4-3.1-.6-3.4-.3-1.3-.2-14.6-2.6-21.5-3-7.1-.5-3.6-7.9-3.5-7.9" class="uwu__data-blue_svg__st2"/>
  <path d="m363.3 310.5-.9 2.2-10.3-5.6 1.3-2.3zM364.5 336.5s.4-.5.7-2h29.4c-.1.9-.1 1.6-.2 2z" class="uwu__data-blue_svg__st6"/>
  <path d="M387.9 429.2v7.4H406c1.3-2.4-1.7-2.9-3.3-3.4-2.8-1-6.3-3.1-7.3-3.9zM354 429.2v7.4h13.1c1-2.4-1.2-2.9-2.4-3.4-2-1-2.8-3-3.5-3.8z" class="uwu__data-blue_svg__st4"/>
  <path d="m371.8 288.3 1.7-.7c.8 1 2.8 1.7 4.9 1.7s4-.7 4.8-1.8l1.9.5c-.6 1.8-3.4 3.1-6.6 3.1-3.2.2-5.9-1.1-6.7-2.8" class="uwu__data-blue_svg__st6"/>
  <path d="M375.4 280.1s2.2 1.7 6.1.1l.2.5c-4.1 1.7-6.6-.2-6.6-.2zM378.6 273.1c0-.1 0-.1-.1-.1s-.1 0-.1.1c0 0-1.5 3.2.5 2.9.1 0 .1-.1.1-.1 0-.1-.1-.1-.1-.1-1.6.1-.3-2.7-.3-2.7M374.3 270.2v.1h.1s1.2-1.3 2.4 0h.1v-.1c-1.3-1.5-2.6-.1-2.6 0M375.6 270.7c.2 0 .4.1.5.2s.2.3.2.5-.1.4-.2.5l-.1-.1.1.1c-.1.1-.3.2-.5.2s-.4-.1-.5-.2-.2-.3-.2-.5.1-.4.2-.5l.1.1-.1-.1c.1-.1.3-.2.5-.2m.4.4c-.1-.1-.2-.2-.4-.2s-.3.1-.4.2-.2.2-.2.4.1.3.2.4.2.2.4.2.3-.1.4-.2.2-.2.2-.4c0-.1-.1-.3-.2-.4M379.9 270.2v.1h.1s1.2-1.3 2.4 0h.1v-.1c-1.3-1.5-2.6-.1-2.6 0M381.3 270.7c.2 0 .4.1.5.2s.2.3.2.5-.1.4-.2.5l-.1-.1.1.1c-.1.1-.3.2-.5.2s-.4-.1-.5-.2-.2-.3-.2-.5.1-.4.2-.5l.1.1-.1-.1c.1-.1.3-.2.5-.2m.4.4c-.1-.1-.2-.2-.4-.2s-.3.1-.4.2-.2.2-.2.4.1.3.2.4.2.2.4.2.3-.1.4-.2.2-.2.2-.4c-.1-.1-.1-.3-.2-.4M376.7 277.3h3.9c.1 0 .1 0 .1.1s0 .1-.1.1l-.1-.1.1.1c-.2.2-.8.8-1.5 1-.8.2-1.7.1-2.6-1.1 0 .1.1 0 .2-.1q-.15 0 0 0m3.8.3h-3.6c.8 1 1.6 1.1 2.2.9s1.1-.7 1.4-.9m.1-.1" class="uwu__data-blue_svg__st2"/>
  <path d="M720 441.5H0v-4.9h720z" class="uwu__data-blue_svg__st3"/>
  <path d="M163.8 281.5c-.1-.1-.3.1-.5.4-2.3 7.5-3.2.9-6 5.7-.3.6-.8 2-1.2 2.9-.6 1-10.9 7.1-17 12.2-.6-5.7-1.4-12.8-2.1-17.6-1.6-11.7-5.1-10.9-6.7-10.4-1.6.6-3.3 2-3.6 6.7-.3 4.1 4.2 27.3 9.5 31.6 2.7 2.3 13.8-9 21.8-19.9 1.6-1.5 3.3-2 4.7-3.1 1.2-1 2.1-2.4 1.9-3.9-.1-.7-.5-4.1-.8-4.6" class="uwu__data-blue_svg__st8"/>
  <path d="M137.1 314c-.5 0-1-.2-1.3-.5-5.5-4.5-10-28.2-9.7-32.1.3-4 1.6-6.4 4-7.3.9-.3 2-.6 3.3.2 2 1.2 3.4 4.7 4.2 10.7.6 4.5 1.4 11.3 1.9 16.5 3.4-2.7 7.7-5.6 11-7.8 2.3-1.6 4.8-3.2 5.1-3.6.2-.4.5-1.1.7-1.7.2-.4.3-.9.5-1.1 1.4-2.4 2.5-2.4 3.6-2.2.7.1 1.3.2 2.4-3.4.2-.4.5-.8.9-.9h.4l.2.3c.3.4.5 1.4.8 4.3 0 .3.1.5.1.6.2 1.5-.5 3.2-2.1 4.5-.7.5-1.4 1-2.1 1.4-.8.5-1.7 1-2.5 1.7-7 9.5-16.8 19.9-21 20.4zm-5.5-38.9c-.4 0-.8.1-1.2.2-1.2.4-2.9 1.5-3.2 6.2-.3 4.3 4.4 27.1 9.3 31.1.1.1.3.2.7.2 3.4-.4 12.4-9.3 20.2-20l.1-.1c.9-.8 1.9-1.4 2.8-1.9.7-.4 1.4-.8 1.9-1.2.6-.5 1.9-1.8 1.7-3.4 0-.1 0-.4-.1-.6-.1-.5-.2-1.6-.3-2.5-1.1 3.1-2 3.5-3.4 3.2-.7-.1-1.3-.2-2.4 1.6-.1.2-.2.6-.4 1-.2.6-.5 1.3-.8 1.8-.4.6-1.7 1.5-5.4 4-3.5 2.4-8.3 5.6-11.8 8.4l-.9.7-.1-1.1c-.6-5.3-1.4-12.7-2.1-17.6-1-6.8-2.5-9.1-3.7-9.8-.1-.1-.5-.2-.9-.2m31.7 6.8" class="uwu__data-blue_svg__st2"/>
  <path d="M120 421.4h4.9v7.9H120z" class="uwu__data-blue_svg__st7"/>
  <path d="M125.4 429.9h-6.1v-9.1h6.1zm-4.8-1.2h3.7V422h-3.7z" class="uwu__data-blue_svg__st2"/>
  <path d="M96.1 421.4h4.9v7.9h-4.9z" class="uwu__data-blue_svg__st7"/>
  <path d="M101.6 429.9h-6.1v-9.1h6.1zm-4.9-1.2h3.7V422h-3.7z" class="uwu__data-blue_svg__st2"/>
  <path d="M81.7 334.5c-.9 3.8-1.3 12.6 4.1 13.4.4.1.5-.9 0-1.5-1.7-2-4.3-8.1-.6-7.8 1.3.1 1.2 5.7 2.6 4 1.5-1.9-.8-6.7-1.1-8.3 0-.2 0-.9.1-1.8.2-2.1.6-5.4.6-5.4l-5.7-.5c.2-.1 1.5 5.1 0 7.9" class="uwu__data-blue_svg__st8"/>
  <path d="M85.8 348.5h-.1c-1.5-.2-2.6-1-3.5-2.2-2.3-3.3-1.7-9.2-1.1-11.9l.1-.2c1.2-2.1.5-6 .2-7l.5-1.3 6.2.7-.1.6s-.4 3.3-.6 5.4v.4c0 .5-.1 1.1-.1 1.2.1.4.3 1 .5 1.7.8 2.3 1.8 5.5.5 7.1-.4.5-.8.6-1.1.5-.8-.2-1-1.2-1.4-2.4-.2-.6-.5-1.7-.7-1.9-.8 0-1 .3-1 .4-.7 1.2.9 4.8 2.2 6.4.5.7.6 1.5.3 2-.2.3-.5.5-.8.5m-3.6-13.8c-.7 2.9-.9 8.2.9 10.9.6.9 1.4 1.4 2.3 1.6 0-.1-.1-.3-.2-.5-1.1-1.4-3.4-5.6-2.3-7.8.3-.5.9-1.2 2.2-1 1 .1 1.3 1.4 1.7 2.8.1.4.3 1.1.4 1.4.8-1.2-.1-4-.7-5.9-.2-.7-.5-1.4-.5-1.8 0-.3 0-.7.1-1.6v-.4c.1-1.6.4-3.7.5-4.8l-4.1-.4c.5 1.8.9 5.3-.3 7.5" class="uwu__data-blue_svg__st2"/>
  <path d="M94.3 241.9c.4 1.1 3 3.8 4 1.9l-.6-6.1c-.6-.3-1.4-.5-2.1-.3-.1 0-.2.1-.3.1-1.5.8-1.4 3-1 4.4" class="uwu__data-blue_svg__st8"/>
  <path d="M91.1 333.3c0-7.6 1.9-18 1.9-18s31.3-8.7 33.4-.6c1.9 7.2 1.9 13.3 2.2 18.7.1 1.8-2.8 89.5-2.8 89.5h-7.4s-1.4-11.6-2.9-26.5v-.3c0-.3 0-.5-.1-.8 0-.2 0-.5-.1-.7-.6-7.4-.8-17-.8-17-1.5-9.4-4-30.2-4.8-38.8 0 0-2.9 29.4-4.4 38.8 0 0-.2 9.5-.8 17 0 .2 0 .5-.1.7 0 .3 0 .5-.1.8v.3c-1.5 14.9-2.7 26.5-2.7 26.5h-6.8c.1 0-3.7-81.2-3.7-89.6" class="uwu__data-blue_svg__st3"/>
  <path d="M118.4 423.2h7.3c.4 0 .7-.3.7-.7v-1.1c0-.4-.3-.7-.7-.7h-7.3c-.4 0-.7.3-.7.7v1.1c.1.4.4.7.7.7M94.8 423.2h7.3c.4 0 .7-.3.7-.7v-1.1c0-.4-.3-.7-.7-.7h-7.3c-.4 0-.7.3-.7.7v1.1c0 .4.3.7.7.7M127.1 317.3s-11.3 1.6-34.4 0c0 0-.4-1.1.3-2s30-.9 30.1-.9 3.5-.2 3.5-.2 1 2.3.5 3.1" class="uwu__data-blue_svg__st9"/>
  <path d="M101.1 258.9c.2-.6 2.8-1.8 2.7-7.1h12.6c-.1 5.3 1.8 6.3 1.9 6.9.1.1 4.4 3.4 4.4 3.4l-12.6 6.1-12.6-6.2s3.5-3.1 3.6-3.1" class="uwu__data-blue_svg__st8"/>
  <path d="M100.8 258.7c.1-.2.2-.3.4-.5.7-.8 2.3-2.4 2.2-6.4v-.4h13.4v.4c-.1 4.1 1 5.6 1.6 6.2.1.2.2.3.3.4.8.6 4.3 3.3 4.3 3.3l.5.4-.5.3-12.6 6.1-.2.1-.2-.1-12.6-6.1-.5-.2.4-.4c-.1-.1 2.8-2.6 3.5-3.1m1-.1c-1.2 1.2-2.4 2.1-3.6 3.2l11.9 5.8 11.9-5.7c-4.2-3.2-6-3.8-6-9.8h-11.8c-.1 4.1-1.7 5.7-2.4 6.5" class="uwu__data-blue_svg__st2"/>
  <path d="M90.9 267.1s-3.3-3.8-4.4 1.4c-1 4.8-3.8 22.1-5.4 32-.2 1.4-.3 2.9-.3 4.3.1 5 .3 17.4 1.5 27.6 2.6.3 4.5 0 4.5 0s2.5-20.9 2.5-28.9c0 0 5.9-19.6 5.9-29.8 0-5-4.3-6.6-4.3-6.6" class="uwu__data-blue_svg__st8"/>
  <path d="M84.6 333.2c-.7 0-1.5 0-2.4-.2l-.5-.1-.1-.5c-1.2-10.3-1.5-22.8-1.5-27.6 0-1.5.1-3 .3-4.4l.7-4.6c1.6-9.8 3.8-23.3 4.6-27.4.4-1.8 1.1-2.9 2.2-3.2 1.4-.4 2.8.9 3.2 1.3.8.3 4.6 2.2 4.6 7.2 0 10-5.4 28.3-5.9 29.9 0 8.1-2.5 28.7-2.5 28.9l-.1.4-.4.1c0 .1-.9.2-2.2.2m-1.8-1.2c1.5.2 2.8.1 3.5 0 .4-3.1 2.4-21.1 2.4-28.4v-.2c.1-.2 5.9-19.6 5.9-29.6 0-4.6-3.8-6.1-3.9-6.1l-.1-.1-.1-.1c-.3-.3-1.4-1.3-2.1-1.1-.5.1-1 .9-1.3 2.2-.9 4.1-3.1 17.6-4.6 27.4l-.7 4.6q-.3 2.1-.3 4.2c-.1 4.9.2 17 1.3 27.2" class="uwu__data-blue_svg__st2"/>
  <path d="M122.1 237.7c.7-.4 1.6-.6 2.4-.2 1.5.7 1.4 3 1 4.4-.4 1.1-3 3.8-4 1.9z" class="uwu__data-blue_svg__st8"/>
  <path d="M80.9 291.2c4.4 1.7 7 3 10.6 2.8 0 2.9 0 11.3-1.1 14.9-1.3 4.4-1.8 7.3 3.6 6.7s29.2 0 30.8 0c.6 0 1.1 0 1.6-.2.8-.2 1.5-.6 2-1.1 1.2-1.2 1.4-3.3.7-5.7-1.1-3.6-1.1-12-1.1-14.9 3.4.2 5.9-.9 9.9-2.5.2-.1.5-.2.7-.3.4-.1.6-.5.5-.9-2.3-11.5-2.5-20.6-6.6-25.3-.8-.9-2.2-1.7-3.7-2.4s-3.1-1.2-4.3-1.6l-5.9-2.3s-.1 3.6-8.8 3.7h-.2c-3.1 0-5.1-.4-6.4-.9-2-1-2.3-2.5-2.3-2.5l-2.3 1.1-2.1.7-1.6.5c-2.3.7-6.3 2.2-8 4-4.1 4.7-4.3 13.8-6.6 25.3 0 .3.2.7.6.9" fill="#5e99ff"/>
  <path d="M118.4 258.9v.2z" fill="#0f161c"/>
  <path d="M125.4 228.9c-.1-.5-.8-2.7-2.5-4.9 1 .4 1.2.2 1.2.2s-.5-.2-2.2-2.2-4.1-3.7-7.4-4.2c-.9-.1-2-.1-3.3.1-1-.2-4.7-1.2-5-1.8 0 .7.2 2 .8 2.4-3-.1-1.4 6.6-2.3 5.4-.6.9-.5 3-.2 3.7-.7-.8-.8-1.4-1.1-2.3-.3.6-.6 1.1-.8 1.8q-.45 1.65-.3 3.3l-.1.1c-1.1 1-5.9-6.2-6.7-5.1-.7.9-1 2.1-.9 3.3.7 8.5 2.9 16.5 7.3 23.8.3.5.6 1 1.1 1.4.9.7 2.4.4 3.5.4h3.9c1.6 0 4.8.6 6.2-.4.4-.3.8-.8 1-1.3 3-4.9 4.8-11 6.2-16.5.4-1.4.6-2.8.9-4.2.5-1 .9-2.2.7-3" class="uwu__data-blue_svg__st3"/>
  <path d="m127.6 283.3.2 10.4c3.4.2 5.9-.9 9.9-2.5-2.4.7-8.1 2.1-8.8 1.7-.8-.4-1.3-9.6-1.3-9.6M91.7 283.6l-.2 10.4c-3.4.2-5.9-.9-9.9-2.5 2.4.7 7.9 2.2 8.6 1.8.8-.4 1.5-9.7 1.5-9.7" class="uwu__data-blue_svg__st12"/>
  <path d="m109.8 338.8 1.7 16s2.4-8.5-1.7-16M109.8 338.8l-2.1 20s-3.3-7.8 2.1-20" class="uwu__data-blue_svg__st13"/>
  <path d="m95 425.9-.7 10.6h18.9c1.4-3.5-1.8-4.1-3.4-4.9-2.9-1.5-6.8-4.3-7.8-5.6zM118.9 425.9l-.7 10.6H137c1.4-3.5-1.8-4.1-3.4-4.9-2.9-1.5-6.8-4.3-7.8-5.6zM100.3 238.9c-1.4-1.1-2.6-.8-3.3.3l-1.8-11.3-1.7 1.5c.3-1.2.7-1.7.5-2.6-1.4-4.7 8.3-10.4 11.7-12.2 3.7-2 12.6-6 16.6-2.8l3.5 3.6-.8-2.6c2.6 1.6 2.8 7.3 2.8 9.9.1 3.1-3.4 11.6-4 14.6-.9-1.8.2-6.3.8-10l-17.2 6.4c-.1 1.1-4.5-4.8-4.7-3.7-.8 5.7 0 2.8-2.4 8.9" class="uwu__data-blue_svg__st4"/>
</svg>
