<svg xmlns="http://www.w3.org/2000/svg" xml:space="preserve" id="uwu__login-blue_svg__uwu__login-blue_svg__uwu__login-blue_svg__uwu__login-blue_svg__Layer_1" width="720" height="483" x="0" y="0" version="1.1">
  <style>
    .uwu__login-blue_svg__uwu__login-blue_svg__uwu__login-blue_svg__uwu__login-blue_svg__st2{fill:#2d5aa8;fill-rule:evenodd;clip-rule:evenodd}.uwu__login-blue_svg__uwu__login-blue_svg__uwu__login-blue_svg__uwu__login-blue_svg__st4{fill:#2d5aa8}.uwu__login-blue_svg__uwu__login-blue_svg__uwu__login-blue_svg__uwu__login-blue_svg__st5{fill-rule:evenodd;clip-rule:evenodd;fill:#fff}.uwu__login-blue_svg__uwu__login-blue_svg__uwu__login-blue_svg__uwu__login-blue_svg__st6,.uwu__login-blue_svg__uwu__login-blue_svg__uwu__login-blue_svg__uwu__login-blue_svg__st7{fill:#3d79e3}.uwu__login-blue_svg__uwu__login-blue_svg__uwu__login-blue_svg__uwu__login-blue_svg__st7,.uwu__login-blue_svg__uwu__login-blue_svg__uwu__login-blue_svg__uwu__login-blue_svg__st9{fill-rule:evenodd;clip-rule:evenodd}.uwu__login-blue_svg__uwu__login-blue_svg__uwu__login-blue_svg__uwu__login-blue_svg__st9{fill:#fbfbfb}.uwu__login-blue_svg__uwu__login-blue_svg__uwu__login-blue_svg__uwu__login-blue_svg__st10,.uwu__login-blue_svg__uwu__login-blue_svg__uwu__login-blue_svg__uwu__login-blue_svg__st11{fill:#3366bf}.uwu__login-blue_svg__uwu__login-blue_svg__uwu__login-blue_svg__uwu__login-blue_svg__st11,.uwu__login-blue_svg__uwu__login-blue_svg__uwu__login-blue_svg__uwu__login-blue_svg__st12{fill-rule:evenodd;clip-rule:evenodd}.uwu__login-blue_svg__uwu__login-blue_svg__uwu__login-blue_svg__uwu__login-blue_svg__st12{fill:#5e99ff}
  </style>
  <path fill="none" d="M0-115.2h720v720H0z"/>
  <path fill="#5e99ff" fill-rule="evenodd" d="M254.9 35c147.6 0 203.2 262.6 216.8 262.6 122.7 0 294.9 9.8 218 180.5H96.8c-52.4-44.8-85.7-82.6-85.7-187.7C11.2 185.2 123.6 35 254.9 35" clip-rule="evenodd" opacity=".2"/>
  <g id="uwu__login-blue_svg__uwu__login-blue_svg__uwu__login-blue_svg__uwu__login-blue_svg___1138383104">
    <path d="M459.7 35.4H239.8c-8.7 0-15.8 7.1-15.8 15.8v5.1h251.5v-5.1c0-8.7-7.1-15.8-15.8-15.8" class="uwu__login-blue_svg__uwu__login-blue_svg__uwu__login-blue_svg__uwu__login-blue_svg__st2"/>
    <path fill-rule="evenodd" d="M239.7 41.6h4.9c1 0 1.7.8 1.7 1.7v4.9c0 1-.8 1.7-1.7 1.7h-4.9c-1 0-1.7-.8-1.7-1.7v-4.9c0-.9.8-1.7 1.7-1.7m16.8 0h4.9c1 0 1.7.8 1.7 1.7v4.9c0 1-.8 1.7-1.7 1.7h-4.9c-1 0-1.7-.8-1.7-1.7v-4.9c-.1-.9.7-1.7 1.7-1.7m16.8 0h4.9c1 0 1.7.8 1.7 1.7v4.9c0 1-.8 1.7-1.7 1.7h-4.9c-1 0-1.7-.8-1.7-1.7v-4.9c-.1-.9.7-1.7 1.7-1.7" clip-rule="evenodd"/>
  </g>
  <path d="M459.7 36.1H239.8c-4.1 0-7.9 1.7-10.6 4.4s-4.4 6.5-4.4 10.6v278.5c0 4.1 1.7 7.9 4.4 10.6s6.5 4.4 10.6 4.4h219.8c4.1 0 7.9-1.7 10.6-4.4s4.4-6.5 4.4-10.6V51.2c0-4.1-1.7-7.9-4.4-10.6-2.6-2.8-6.4-4.5-10.5-4.5m-219.9-1.5h219.8c4.6 0 8.7 1.9 11.7 4.9s4.9 7.2 4.9 11.7v278.5c0 4.6-1.9 8.7-4.9 11.7s-7.2 4.9-11.7 4.9H239.8c-4.6 0-8.7-1.9-11.7-4.9s-4.9-7.2-4.9-11.7V51.2c0-4.6 1.9-8.7 4.9-11.7 3-3.1 7.2-4.9 11.7-4.9" class="uwu__login-blue_svg__uwu__login-blue_svg__uwu__login-blue_svg__uwu__login-blue_svg__st4"/>
  <path d="M474.7 56.3h-250v273.4c0 4.1 1.7 7.9 4.4 10.6s6.5 4.4 10.6 4.4h219.8c4.1 0 7.9-1.7 10.6-4.4s4.4-6.5 4.4-10.6V56.3z" class="uwu__login-blue_svg__uwu__login-blue_svg__uwu__login-blue_svg__uwu__login-blue_svg__st5"/>
  <path d="M430.8 7.4H211c-8.7 0-15.8 7.1-15.8 15.8v5.1h251.5v-5.1c-.1-8.7-7.2-15.8-15.9-15.8" class="uwu__login-blue_svg__uwu__login-blue_svg__uwu__login-blue_svg__uwu__login-blue_svg__st2"/>
  <path d="M430.8 8.2H211c-4.1 0-7.9 1.7-10.6 4.4s-4.4 6.5-4.4 10.6v278.5c0 4.1 1.7 7.9 4.4 10.6s6.5 4.4 10.6 4.4h219.8c4.1 0 7.9-1.7 10.6-4.4s4.4-6.5 4.4-10.6V23.2c0-4.1-1.7-7.9-4.4-10.6s-6.5-4.4-10.6-4.4M211 6.6h219.8c4.6 0 8.7 1.9 11.7 4.9s4.9 7.2 4.9 11.7v278.5c0 4.6-1.9 8.7-4.9 11.7s-7.2 4.9-11.7 4.9H211c-4.6 0-8.7-1.9-11.7-4.9s-4.9-7.2-4.9-11.7V23.2c0-4.6 1.9-8.7 4.9-11.7 2.9-3 7.1-4.9 11.7-4.9" class="uwu__login-blue_svg__uwu__login-blue_svg__uwu__login-blue_svg__uwu__login-blue_svg__st4"/>
  <path d="M210.8 13.7h4.9c1 0 1.7.8 1.7 1.7v4.9c0 1-.8 1.7-1.7 1.7h-4.9c-1 0-1.7-.8-1.7-1.7v-4.9c0-.9.8-1.7 1.7-1.7m16.8 0h4.9c1 0 1.7.8 1.7 1.7v4.9c0 1-.8 1.7-1.7 1.7h-4.9c-1 0-1.7-.8-1.7-1.7v-4.9c0-.9.7-1.7 1.7-1.7m16.8 0h4.9c1 0 1.7.8 1.7 1.7v4.9c0 1-.8 1.7-1.7 1.7h-4.9c-1 0-1.7-.8-1.7-1.7v-4.9c-.1-.9.7-1.7 1.7-1.7m201.5 14.7h-250v273.4c0 4.1 1.7 7.9 4.4 10.6s6.5 4.4 10.6 4.4h219.8c4.1 0 7.9-1.7 10.6-4.4s4.4-6.5 4.4-10.6z" class="uwu__login-blue_svg__uwu__login-blue_svg__uwu__login-blue_svg__uwu__login-blue_svg__st5"/>
  <path d="M242.7 181.6h152v30.1h-152z" class="uwu__login-blue_svg__uwu__login-blue_svg__uwu__login-blue_svg__uwu__login-blue_svg__st5"/>
  <path d="M242.7 180.8h152.7v31.5H242v-31.5zm151.3 1.5H243.4v28.6H394zm-150.7 36.2h74.6v1.4h-74.6zm0 6.3h37.3v1.4h-37.3z" class="uwu__login-blue_svg__uwu__login-blue_svg__uwu__login-blue_svg__uwu__login-blue_svg__st4"/>
  <path d="M242.7 237.8h152v30.1h-152z" class="uwu__login-blue_svg__uwu__login-blue_svg__uwu__login-blue_svg__uwu__login-blue_svg__st5"/>
  <path d="M242.7 237.1h152.7v31.5H242v-31.5zm151.3 1.4H243.4v28.6H394zm-150.7 36.2h74.6v1.5h-74.6zm0 6.3h37.3v1.5h-37.3z" class="uwu__login-blue_svg__uwu__login-blue_svg__uwu__login-blue_svg__uwu__login-blue_svg__st4"/>
  <g id="uwu__login-blue_svg__uwu__login-blue_svg__uwu__login-blue_svg__uwu__login-blue_svg___1138379480">
    <path d="M266 244.9v15.9h-1.5v-15.9z" class="uwu__login-blue_svg__uwu__login-blue_svg__uwu__login-blue_svg__uwu__login-blue_svg__st6"/>
    <path d="m272.5 249.5-13.8 8-.7-1.3 13.8-8z" class="uwu__login-blue_svg__uwu__login-blue_svg__uwu__login-blue_svg__uwu__login-blue_svg__st6"/>
    <path d="m271.8 257.5-13.8-8 .7-1.3 13.8 8zm20.9-12.6v15.9h-1.5v-15.9z" class="uwu__login-blue_svg__uwu__login-blue_svg__uwu__login-blue_svg__uwu__login-blue_svg__st6"/>
    <path d="m299.3 249.5-13.9 8-.7-1.3 13.8-8z" class="uwu__login-blue_svg__uwu__login-blue_svg__uwu__login-blue_svg__uwu__login-blue_svg__st6"/>
    <path d="m298.5 257.5-13.8-8 .7-1.3 13.9 8zm20.9-12.6v15.9H318v-15.9z" class="uwu__login-blue_svg__uwu__login-blue_svg__uwu__login-blue_svg__uwu__login-blue_svg__st6"/>
    <path d="m326 249.5-13.8 8-.8-1.3 13.8-8z" class="uwu__login-blue_svg__uwu__login-blue_svg__uwu__login-blue_svg__uwu__login-blue_svg__st6"/>
    <path d="m325.2 257.5-13.8-8 .8-1.3 13.8 8zm21-12.6v15.9h-1.5v-15.9z" class="uwu__login-blue_svg__uwu__login-blue_svg__uwu__login-blue_svg__uwu__login-blue_svg__st6"/>
    <path d="m352.7 249.5-13.8 8-.8-1.3 13.9-8z" class="uwu__login-blue_svg__uwu__login-blue_svg__uwu__login-blue_svg__uwu__login-blue_svg__st6"/>
    <path d="m352 257.5-13.9-8 .8-1.3 13.8 8zm20.9-12.6v15.9h-1.5v-15.9z" class="uwu__login-blue_svg__uwu__login-blue_svg__uwu__login-blue_svg__uwu__login-blue_svg__st6"/>
    <path d="m379.4 249.5-13.8 8-.7-1.3 13.8-8z" class="uwu__login-blue_svg__uwu__login-blue_svg__uwu__login-blue_svg__uwu__login-blue_svg__st6"/>
    <path d="m378.7 257.5-13.8-8 .7-1.3 13.8 8z" class="uwu__login-blue_svg__uwu__login-blue_svg__uwu__login-blue_svg__uwu__login-blue_svg__st6"/>
  </g>
  <g id="uwu__login-blue_svg__uwu__login-blue_svg__uwu__login-blue_svg__uwu__login-blue_svg___1004206392">
    <path d="M361.8 136.1c-6.2-10.8-16.4-19-28.5-22.7-3.6 3.9-8.8 6.4-14.6 6.4s-11-2.5-14.6-6.4c-12.1 3.7-22.3 11.9-28.5 22.7 8.6 14.9 24.7 24.9 43.1 24.9s34.5-10 43.1-24.9" class="uwu__login-blue_svg__uwu__login-blue_svg__uwu__login-blue_svg__uwu__login-blue_svg__st7"/>
    <path d="M318.7 60.7c13.9 0 26.6 5.7 35.7 14.8s14.8 21.8 14.8 35.7-5.7 26.6-14.8 35.7-21.8 14.8-35.7 14.8-26.6-5.7-35.7-14.8-14.8-21.8-14.8-35.7 5.7-26.6 14.8-35.7 21.8-14.8 35.7-14.8m34.7 15.8c-8.9-8.9-21.1-14.4-34.7-14.4-13.5 0-25.8 5.5-34.7 14.4s-14.4 21.1-14.4 34.7 5.5 25.8 14.4 34.7 21.1 14.4 34.7 14.4c13.5 0 25.8-5.5 34.7-14.4s14.4-21.1 14.4-34.7c-.1-13.5-5.6-25.8-14.4-34.7" class="uwu__login-blue_svg__uwu__login-blue_svg__uwu__login-blue_svg__uwu__login-blue_svg__st4"/>
    <circle cx="318.7" cy="91.3" r="19.9" class="uwu__login-blue_svg__uwu__login-blue_svg__uwu__login-blue_svg__uwu__login-blue_svg__st7"/>
  </g>
  <path d="M408.8 260s1.9 25.8-20.6 22c0 0-25.8 118.6 64.1 144.9 89.9-26.3 64.1-144.9 64.1-144.9-22.5 3.8-20.6-22-20.6-22z" class="uwu__login-blue_svg__uwu__login-blue_svg__uwu__login-blue_svg__uwu__login-blue_svg__st5"/>
  <path d="M452.3 427.6h-.2c-20.6-6-36.9-17.5-48.3-34-9.1-13.2-15.1-29.6-17.9-48.8-4.7-32.7 1.6-62.5 1.7-62.8l.1-.6.6.1c6 1 10.7 0 14-3.1 6.7-6.1 5.9-18.2 5.8-18.3v-.6h88.4v.6c0 .1-.8 12.2 5.8 18.3 3.4 3 8.1 4.1 14 3.1l.6-.1.1.6c.1.3 6.4 30.1 1.7 62.8-2.8 19.2-8.8 35.7-17.9 48.8-11.4 16.5-27.6 27.9-48.3 34zm-63.6-144.9c-.8 4.2-5.9 31.8-1.5 61.9 4.3 29.8 19.2 68.2 65.2 81.8 46-13.5 60.8-52 65.2-81.8 4.4-30-.7-57.6-1.6-61.8-6.1.9-10.9-.2-14.5-3.5-6.3-5.7-6.4-15.9-6.3-18.6h-85.8c.1 2.7 0 12.9-6.3 18.6-3.5 3.1-8.4 4.3-14.4 3.4" class="uwu__login-blue_svg__uwu__login-blue_svg__uwu__login-blue_svg__uwu__login-blue_svg__st4"/>
  <g id="uwu__login-blue_svg__uwu__login-blue_svg__uwu__login-blue_svg__uwu__login-blue_svg___1004205072">
    <path d="M433.3 318.5h38.1v-21.6c0-3.5-2.9-6.3-6.3-6.3h-25.4c-3.5 0-6.3 2.9-6.3 6.3v21.6z" class="uwu__login-blue_svg__uwu__login-blue_svg__uwu__login-blue_svg__uwu__login-blue_svg__st5"/>
    <path d="M434.1 318.5h36.5v-20.8c0-1.5-.6-2.9-1.6-3.9s-2.4-1.6-3.9-1.6h-25.4c-1.5 0-2.9.6-3.9 1.6s-1.6 2.4-1.6 3.9zm37.2 1.6h-38.1c-.4 0-.8-.4-.8-.8v-21.6c0-2 .8-3.7 2.1-5s3.1-2.1 5-2.1H465c2 0 3.7.8 5 2.1s2.1 3.1 2.1 5v21.6c0 .4-.3.8-.8.8" class="uwu__login-blue_svg__uwu__login-blue_svg__uwu__login-blue_svg__uwu__login-blue_svg__st6"/>
    <path d="M420.4 318.5h63.8c1.6 0 3 2.1 3 4.7v41.7c0 2.6-1.3 4.7-3 4.7h-63.8c-1.6 0-3-2.1-3-4.7v-41.7c0-2.6 1.3-4.7 3-4.7" class="uwu__login-blue_svg__uwu__login-blue_svg__uwu__login-blue_svg__uwu__login-blue_svg__st7"/>
    <path fill="#fbfeff" fill-rule="evenodd" d="M455.6 345.1v6.7c0 1.8-1.5 3.3-3.3 3.3s-3.3-1.5-3.3-3.3v-6.7c-1.9-1.1-3.3-3.3-3.3-5.7 0-3.6 2.9-6.6 6.6-6.6 3.6 0 6.6 2.9 6.6 6.6 0 2.5-1.3 4.6-3.3 5.7" clip-rule="evenodd"/>
  </g>
  <path d="M720 483H0v-4.9h720z" class="uwu__login-blue_svg__uwu__login-blue_svg__uwu__login-blue_svg__uwu__login-blue_svg__st4"/>
  <g id="uwu__login-blue_svg__uwu__login-blue_svg__uwu__login-blue_svg__uwu__login-blue_svg___1004232648">
    <path d="m610.4 76.7.8 26.8-25-.3.5-10.4.3-12.6z" class="uwu__login-blue_svg__uwu__login-blue_svg__uwu__login-blue_svg__uwu__login-blue_svg__st9"/>
    <path d="m609.5 77.5.7 25.4-23.6-.3.4-9.8.3-12zm2.1 26-.8-26.8V76l-.7.1-23.4 3.5-.5.1v.5l-.3 12.6-.5 10.4v.7h.7l25 .3h.7z" class="uwu__login-blue_svg__uwu__login-blue_svg__uwu__login-blue_svg__uwu__login-blue_svg__st4"/>
    <path d="M590.1 32.2c.8-.8 26.8-.7 23.2 27.5 0 0 6.8-4.1 5.1 6.2 0 0 0 3.6-5.1 3.4 0 0-5.9 23.7-21.3 21.5s-14.4-17-14.4-17V48.6c-.1 0-3.1-17.2 12.5-16.4" class="uwu__login-blue_svg__uwu__login-blue_svg__uwu__login-blue_svg__uwu__login-blue_svg__st9"/>
    <path d="M590.6 32.7c.1-.1 1.5-.1 3.7.2 1.8.2 3.9.7 6.1 1.6s4.4 2.2 6.4 4c4.2 3.9 7.2 10.5 5.8 21.2l-.2 1.3 1.1-.7s5.7-3.4 4.2 5.5v.1s0 3-4.5 2.8h-.5l-.1.5c0 .1-5.8 23.1-20.6 21s-13.8-16.3-13.8-16.3V48.5s-2.9-16.5 11.9-15.7h.3zm3.9-1.1c-2-.3-3.6-.2-4.3 0-15.9-.9-13.4 15.9-13.2 17.1v25.2c0 .8-.7 15.4 14.9 17.6 14.7 2.1 21-18 21.9-21.5 4.9 0 5.3-3.5 5.3-4 1.5-8.9-2.9-8.1-5-7.3 1.1-10.6-2-17.1-6.3-21.2-2.1-2-4.5-3.3-6.8-4.3-2.4-.9-4.7-1.4-6.5-1.6" class="uwu__login-blue_svg__uwu__login-blue_svg__uwu__login-blue_svg__uwu__login-blue_svg__st4"/>
    <path d="M576.9 59.5c1-.3.8 0 1.3-.8v-8.2c1.8-5.4 5.2-8.8 5.2-8.8-1-.9-1.3-1.4-1.9-2.6-1-1.7-1.8-3.3-1.9-5.2-1.7 1.6-2.9 3.5-3.5 4.9-.4 1-.7 2-.7 3.1-.2 4.1.7 14.7 1.5 17.6" class="uwu__login-blue_svg__uwu__login-blue_svg__uwu__login-blue_svg__uwu__login-blue_svg__st4"/>
    <path d="M602.5 40.7c1.1 3.9 5.4 6.8 9.2 8.3.3 2.5 2.3 8.7 2.4 9.8 1-.5 2.4-.8 3.4-.3.1.1.2.1.3.2.3-2.1 2-14.6 1.8-15.4s-1.2-3-3.7-6.2c1.5.7 1.8.3 1.8.3s-.7-.4-3.2-3.3c-2.5-3-6.2-5.5-11.1-6.3-1.3-.2-3-.1-4.9.1-5.4.7-12.4 2.8-15.3 3.6-1.3.4-2.6 1.2-3.8 2.3l-.1.1c.1 1.9.8 3.8 1.7 5.5.7 1.2 2.1 2 2.4 2.1.9.2 2.8.4 4.8.1.3 0 .6-.1.9-.1 2.8-.4 6.7-.9 11.2-1.5.1.2 2.2.7 2.2.7" class="uwu__login-blue_svg__uwu__login-blue_svg__uwu__login-blue_svg__uwu__login-blue_svg__st4"/>
    <path d="M602.4 36.2c1.7 5.1-2.6 9.5-7.6 9.6-3.2 0-6.6-1-9.3-2.8-5.6-3.7-6.9-11.8-3.3-17.4.5-.8 1.2-1.5 1.9-2.2-.1 1.5-.2 2.4.5 3.8 0-1.1.7-4.1 1.9-5.2.7 2.2 3.2 5.5 7.5 6.9-.7-.8-.4-2.7-.1-3.7.1 1 5 4.1 6.4 4.8.1 0 2.1 6.1 2.1 6.2" class="uwu__login-blue_svg__uwu__login-blue_svg__uwu__login-blue_svg__uwu__login-blue_svg__st4"/>
    <path d="M579.3 28.6c-.4 1.9-.4 3.8.1 5.7.3 1.3.8 2.6 1.5 3.7.3.5.7 1 1.1 1.5 1.3 1.5 3 2.6 4.8 3.3.9.4 1.8.6 2.8.8.5.1.9.2 1.4.2.5.1.9.1 1.4.1-.5-.1-.9-.2-1.4-.3s-.9-.3-1.4-.4c-.9-.3-1.8-.6-2.6-1-1.7-.8-3.3-1.9-4.5-3.3l-.9-1.2c-.8-1.1-1.3-2.4-1.7-3.7-.3-.9-.4-1.8-.5-2.8-.1-.5-.1-1.1-.1-1.6z" class="uwu__login-blue_svg__uwu__login-blue_svg__uwu__login-blue_svg__uwu__login-blue_svg__st4"/>
    <path d="M584.8 34.2c.1 1.4.4 2.8.9 4.1s1.2 2.6 2.1 3.7q1.35 1.65 3.3 2.7c1.2.7 2.7.9 4.1 1-.3-.1-.7-.2-1-.3s-.7-.2-1-.3l-.9-.4-.9-.5c-1.1-.7-2.2-1.6-3-2.7-.8-1-1.5-2.2-2.1-3.5-.6-1.2-1.1-2.4-1.5-3.8m17.1 3.3c.4 1.3.6 2.6.3 3.9q-.15.9-.6 1.8c-.1.3-.3.6-.5.9s-.4.5-.6.8c.3-.2.6-.4.8-.6.2-.3.5-.5.7-.8.4-.6.7-1.3.9-2 .1-.7.1-1.4-.1-2.1-.1-.8-.4-1.4-.9-1.9m9.3 7.1c.7 8 1.3 16.3 1.3 16.3l1.6-2.1 2.2-5.4-.9-10.1c0 .1-4.3.2-4.2 1.3" class="uwu__login-blue_svg__uwu__login-blue_svg__uwu__login-blue_svg__uwu__login-blue_svg__st4"/>
    <path d="M603.6 37.2c.4 1.3.6 2.6.3 3.9q-.15.9-.6 1.8c-.1.3-.3.6-.5.9s-.4.5-.6.8c.3-.2.6-.4.8-.6.2-.3.5-.5.7-.8.4-.6.7-1.3.9-2 .1-.7.1-1.4-.1-2.1-.1-.7-.4-1.4-.9-1.9" class="uwu__login-blue_svg__uwu__login-blue_svg__uwu__login-blue_svg__uwu__login-blue_svg__st4"/>
    <path d="M516.6 135c0 1 7.7 22 8.7 25.1 3.2 9.5 15.4-17.9 17.3-21.3 2.6-7.1 9.7-7.9 9.7-7.9l-.8 26s-12.1 20.2-21.8 28.9c-15.2 13.6-20.3-45-22.1-46.3-1.7-1.3.1-1.5-2.2-2.5-1.8-.8-4.6-3.3-8.9-4.1-3-1.3-4-3.3-4-3.3-1.7-1.9-2.3-4.4-2.3-6.7 0-1.1.1-2.1.4-3 .2-.9.5-1.7.9-2.2.4-.7.8-1.1 1.2-1.1.7 0 1.4 1.1 2.1 2.5 0 0 2.6 3.5 3.4 4.8q.75.6 1.8.9c1.3.4 3.2.3 4.6-.2.5-.2 1-.5 1.3-.8.4-.4.7-.8.8-1.3.2-.7.2-1.5-.2-2.5-.2-.5-.2-.9 0-1.1s.6-.3 1.2-.2c.7.1 1.5.4 2.4 1 1.6 1.1 3.2 3 4.3 5.8 0-.1 2.3 4 2.2 9.5" class="uwu__login-blue_svg__uwu__login-blue_svg__uwu__login-blue_svg__uwu__login-blue_svg__st9"/>
    <path d="M515.5 133c0 .8 3.9 11.7 6.7 19.4 1.2 3.5 2.3 6.3 2.6 7.3.7 2.2 1.9 2.8 3.3 2.3 4.3-1.4 11-14.9 14.3-21.6.8-1.5 1.3-2.7 1.7-3.2v-.1c2.2-6 7.6-7.6 9.3-7.9l-.8 26.9c-1 1.6-13.1 21.7-23 30.4-3.4 3-6.2 2.4-8.6-.3-6.3-7-9.9-27.7-12-39.7-.9-5.2-1.5-8.8-2.1-9.2q-1.35-1.05-3-2.1c-1.1-.7-2.2-1.3-3.5-1.9-.8-.4-1.6-.6-2.4-.9-1.2-.4-2.3-.7-3.3-1.3-3.2-2-4.3-5.4-4.3-8.5 0-1.1.1-2.1.4-3 .2-.9.5-1.7.9-2.2.4-.7.8-1.1 1.2-1.1.8 0 1.5 1.3 2.3 2.8 1.1 2.1 2.5 4.7 5 5.4 1.3.4 3.2.3 4.6-.2.5-.2 1-.5 1.3-.8.4-.4.7-.8.8-1.3.2-.7.2-1.5-.2-2.5-.2-.5-.2-.9 0-1.1s.6-.3 1.2-.2c.7.1 1.5.4 2.4 1 2.6 2 5.5 6.3 5.2 13.6m7.6 19.1c-2.8-7.7-6.6-18.4-6.6-19.1.2-7.7-2.9-12.2-5.8-14.2-1-.7-2-1.1-2.8-1.2-.9-.1-1.7.1-2.1.6s-.5 1.2-.1 2.1c.3.7.3 1.3.2 1.8q-.15.45-.6.9c-.3.3-.6.5-1 .6-1.2.5-2.8.5-3.9.2-2.1-.6-3.4-3-4.4-4.9-1-1.8-1.8-3.4-3.2-3.4-.8 0-1.5.6-2.1 1.5-.4.7-.8 1.5-1 2.5s-.4 2.1-.4 3.2c0 3.4 1.2 7.1 4.8 9.3 1.1.7 2.3 1.1 3.5 1.5.8.2 1.6.5 2.3.8q1.8.75 3.3 1.8c1 .7 2 1.3 2.9 2 .3.2.9 3.6 1.7 8.6 2.1 12.1 5.8 32.9 12.3 40.2 2.8 3.2 6.1 3.9 10 .4 10.4-9.3 23.2-30.7 23.2-30.8l.1-.2.8-27.6v-.6l-.6.1s-7.8.9-10.7 8.6c-.3.6-.9 1.7-1.7 3.3-3.3 6.5-9.9 19.8-13.8 21.1-.8.3-1.5-.2-2-1.7 0-1.1-1-4-2.3-7.4" class="uwu__login-blue_svg__uwu__login-blue_svg__uwu__login-blue_svg__uwu__login-blue_svg__st4"/>
    <path d="M644.5 450.9h14.6v10.4h-14.6z" class="uwu__login-blue_svg__uwu__login-blue_svg__uwu__login-blue_svg__uwu__login-blue_svg__st9"/>
    <path d="M659.1 461.9h-15.2v-11.6h15.8v11.6zm-14.1-1.2h13.5v-9.3H645z" class="uwu__login-blue_svg__uwu__login-blue_svg__uwu__login-blue_svg__uwu__login-blue_svg__st10"/>
    <path d="M557.1 451.6h14.6V462h-14.6z" class="uwu__login-blue_svg__uwu__login-blue_svg__uwu__login-blue_svg__uwu__login-blue_svg__st9"/>
    <path d="M571.8 462.6h-15.2V451h15.8v11.6zm-14.1-1.2h13.5v-9.3h-13.5z" class="uwu__login-blue_svg__uwu__login-blue_svg__uwu__login-blue_svg__uwu__login-blue_svg__st10"/>
    <path d="m554.8 453.3 4.1-239.2h71.9l30.4 239.2h-17.8L594.3 263l-20.5 190.3z" class="uwu__login-blue_svg__uwu__login-blue_svg__uwu__login-blue_svg__uwu__login-blue_svg__st11"/>
    <path d="m660.7 449 .5 4.3h-17.8l-1.1-4.3z" class="uwu__login-blue_svg__uwu__login-blue_svg__uwu__login-blue_svg__uwu__login-blue_svg__st11"/>
    <path d="M634 222.9s-8.5-12.2.3-73.1l5 11.9 26.6-14.2-19.5-33.3c-1.9-3.2-1.2-3.1-4.6-4.4l-30.9-12c-2.1 2.7-7 4.4-12.4 4.4s-10.2-1.8-12.3-4.5l-28.7 7.7c-3.7 1-2.8.6-4.5 4l-22.5 45.2 23.3 10.1 2.9-15.5s-1.5 63.2.8 73.6H634z" class="uwu__login-blue_svg__uwu__login-blue_svg__uwu__login-blue_svg__uwu__login-blue_svg__st12"/>
    <path d="M557.9 145.9s-1.7 1.6-1.3 3.5c-.5-2.6.1-4.3.1-4.4zm80.1-5.3s-4.9 6.3-3.6 9.3c-1.5-3.7 2.4-10.1 2.5-10.1zm-6.8 72c-.3-2.1-.5-4.6-.7-7.6-.5-.1-1.1-.1-1.6-.1-2 0-3.8.7-5.6 1.4-.7.3-2.1.9-2.9.9s-2.1-.6-2.9-.9c-1.8-.8-3.6-1.4-5.6-1.4s-3.8.7-5.6 1.4c-.7.3-2.1.9-2.9.9s-2.1-.6-2.9-.9c-1.8-.8-3.6-1.4-5.6-1.4s-3.8.7-5.6 1.4c-.7.3-2.1.9-2.9.9s-2.1-.6-2.9-.9c-1.8-.8-3.6-1.4-5.6-1.4s-3.8.7-5.6 1.4c-.7.3-2.1.9-2.9.9s-2.1-.6-2.9-.9c-1.8-.8-3.6-1.4-5.6-1.4-1.8 0-3.4.5-5 1.2.1 2.7.1 5.3.2 7.5.6-.2 1.2-.5 1.9-.7.7-.3 2.1-.9 2.9-.9s2.1.6 2.9.9c1.8.8 3.6 1.4 5.6 1.4s3.8-.7 5.6-1.4c.7-.3 2.1-.9 2.9-.9s2.1.6 2.9.9c1.8.8 3.6 1.4 5.6 1.4s3.8-.7 5.6-1.4c.7-.3 2.1-.9 2.9-.9s2.1.6 2.9.9c1.8.8 3.6 1.4 5.6 1.4s3.8-.7 5.6-1.4c.7-.3 2.1-.9 2.9-.9s2.1.6 2.9.9c1.8.8 3.6 1.4 5.6 1.4s3.8-.7 5.6-1.4c.7-.3 2.1-.9 2.9-.9.7-.1 1.6.3 2.3.6m-16.1-113-4.3-1.7c-2.1 2.7-7 4.4-12.4 4.4s-10.2-1.8-12.3-4.5l-4.9 1.3c1.6 4.6 8.6 8.1 17 8.1 8.2 0 15.1-3.2 16.9-7.6m-81.7 49.2-2.9 6 23.3 10.1 1.1-6.1z" class="uwu__login-blue_svg__uwu__login-blue_svg__uwu__login-blue_svg__uwu__login-blue_svg__st7"/>
    <path d="M563.9 158.5H588c1.3 0 1.9 1.1 2.3 2.3l12.7 35.3c.4 1.2-1 2.3-2.3 2.3h-24.1c-1.3 0-1.9-1.1-2.3-2.3l-12.7-35.3c-.5-1.2 1-2.3 2.3-2.3" class="uwu__login-blue_svg__uwu__login-blue_svg__uwu__login-blue_svg__uwu__login-blue_svg__st9"/>
    <path d="M563.9 158.1H588q1.2 0 1.8.9c.4.5.7 1.1.9 1.7l12.7 35.3c.1.2.1.4.1.6 0 .5-.2 1-.6 1.3-.3.3-.8.6-1.2.8-.3.1-.7.2-1 .2h-24.1c-.8 0-1.3-.3-1.8-.9-.4-.5-.7-1.1-.9-1.7L561.2 161c-.1-.2-.1-.4-.1-.6 0-.5.2-1 .6-1.3.3-.3.8-.6 1.2-.8.3-.2.6-.2 1-.2m24.1.8h-24.1c-.2 0-.5 0-.7.1-.3.1-.7.3-.9.6-.2.2-.3.5-.3.8 0 .1 0 .2.1.3l12.7 35.3c.2.6.4 1.1.8 1.5.3.3.7.6 1.2.6h24.1c.2 0 .5 0 .7-.1.3-.1.7-.3.9-.6.2-.2.3-.5.3-.7v-.3l-12.7-35.3c-.2-.6-.4-1.1-.8-1.5-.4-.5-.8-.7-1.3-.7" class="uwu__login-blue_svg__uwu__login-blue_svg__uwu__login-blue_svg__uwu__login-blue_svg__st4"/>
    <path d="m658.6 148.3 9.4 18.5s9.4 19.7-9.1 20.7-55.4 7.7-55.4 7.7-3.4-3.4-8.2.6-13.5-11-.6-12.6c0 0 6.7-1 10.6 4.5l40.8-14.7s5.4-.2 2.4-5.4-6.4-10-6.4-10z" class="uwu__login-blue_svg__uwu__login-blue_svg__uwu__login-blue_svg__uwu__login-blue_svg__st9"/>
    <path d="m659.1 148 9.4 18.5c0 .1 9.8 20.5-9.7 21.5-18.5 1-55.2 7.7-55.3 7.7l-.3.1-.2-.2s-3-3-7.4.6c-1.5 1.2-3.2 1-4.7-.1-1.2-.8-2.3-2.2-3-3.8s-.9-3.4-.4-5c.7-2.3 2.7-4.3 7-4.8 0 0 6.8-1 10.9 4.3l40.4-14.5h.2s4.4-.2 1.9-4.5c-3-5.2-6.3-9.9-6.4-9.9l-.4-.5.6-.3 16.5-9.3.5-.3zm8.4 19-9.1-18-15.4 8.6c1 1.4 3.6 5.3 6 9.5 3.2 5.6-2 6.2-2.8 6.3l-40.7 14.7-.4.2-.3-.4c-3.6-5.1-10-4.2-10-4.2-3.7.5-5.5 2.1-6 4-.4 1.4-.2 2.9.4 4.2.6 1.4 1.5 2.6 2.5 3.3 1.1.7 2.3.9 3.3.1 4.5-3.7 7.8-1.5 8.7-.8 3.4-.6 37.5-6.7 55.2-7.7 17.6-.8 8.6-19.7 8.6-19.8" class="uwu__login-blue_svg__uwu__login-blue_svg__uwu__login-blue_svg__uwu__login-blue_svg__st4"/>
    <path d="m637 156.2 2.3 5.6 26.6-14.2-3.5-6zm-3 66.7s-.9-1.3-1.8-5.1h-75.4c.2 2.2.4 4 .6 5.1z" class="uwu__login-blue_svg__uwu__login-blue_svg__uwu__login-blue_svg__uwu__login-blue_svg__st7"/>
    <path d="M574 460.3v18.9h-46.3c-3.4-6.2 4.4-7.3 8.4-8.8 7.1-2.6 16.2-7.9 18.7-10.1zm87 0v18.9h-33.5c-2.5-6.2 3.2-7.3 6.1-8.8 5.2-2.6 7.2-7.7 9-9.9z" class="uwu__login-blue_svg__uwu__login-blue_svg__uwu__login-blue_svg__uwu__login-blue_svg__st2"/>
  </g>
  <g id="uwu__login-blue_svg__uwu__login-blue_svg__uwu__login-blue_svg__uwu__login-blue_svg___1004220432">
    <path d="M126.1 285.8c-.6 2.4-1.3 4.8-2 7.1-9.2 33.6-18.2 66.4-18.2 101.7h-3.2c0-35.6 9.1-68.7 18.4-102.5.7-2.4 1.3-4.7 2-7.1z" class="uwu__login-blue_svg__uwu__login-blue_svg__uwu__login-blue_svg__uwu__login-blue_svg__st10"/>
    <path d="M126.9 364.3c-1.2 4.4-4.1 8.4-8.3 10.9s-9.1 3.1-13.5 2c1.2-4.4 4.1-8.4 8.3-10.9s9.1-3.1 13.5-2m-38.6-6.2c-.2 4.6 1.3 9.2 4.5 12.9 3.3 3.7 7.7 5.8 12.2 6.2.2-4.6-1.3-9.2-4.5-12.9-3.3-3.8-7.7-5.9-12.2-6.2m40.6-11.2c-1.2 4.4-4.1 8.4-8.3 10.9s-9.1 3.1-13.5 2c1.2-4.4 4.1-8.4 8.3-10.9 4.2-2.4 9.1-3 13.5-2m-38.6-6.2c-.2 4.6 1.3 9.2 4.5 12.9 3.3 3.7 7.7 5.8 12.2 6.2.2-4.6-1.3-9.2-4.5-12.9-3.3-3.7-7.7-5.8-12.2-6.2m41.8-11.8c-1.2 4.4-4.1 8.4-8.3 10.9s-9.1 3.1-13.5 2c1.2-4.4 4.1-8.4 8.3-10.9s9.1-3.1 13.5-2m-38.6-6.3c-.2 4.6 1.3 9.2 4.5 12.9 3.3 3.7 7.7 5.8 12.2 6.2.2-4.6-1.3-9.2-4.5-12.9s-7.7-5.8-12.2-6.2m43.1-13.2c-1.2 4.4-4.1 8.4-8.3 10.9s-9.1 3.1-13.5 2c1.2-4.4 4.1-8.4 8.3-10.9 4.2-2.4 9-3 13.5-2m-38.7-6.2c-.2 4.6 1.3 9.2 4.5 12.9 3.3 3.7 7.7 5.8 12.2 6.2.2-4.6-1.3-9.2-4.5-12.9s-7.6-5.8-12.2-6.2m44.2-14.8c-1.2 4.4-4.1 8.4-8.3 10.9s-9.1 3.1-13.5 2c1.2-4.4 4.1-8.4 8.3-10.9s9.1-3.1 13.5-2m-38.6-6.3c-.2 4.6 1.3 9.2 4.5 12.9 3.3 3.7 7.7 5.8 12.2 6.2.2-4.6-1.3-9.2-4.5-12.9-3.3-3.7-7.7-5.8-12.2-6.2m34.8-8c-.8 4.4-2.6 8.4-5.3 10.9s-5.8 3.1-8.7 2c.8-4.4 2.6-8.4 5.3-10.9s5.8-3.1 8.7-2m-24.7-6.3c-.1 4.6.8 9.2 2.9 12.9s4.9 5.8 7.8 6.2c.1-4.6-.8-9.2-2.9-12.9s-4.9-5.8-7.8-6.2" class="uwu__login-blue_svg__uwu__login-blue_svg__uwu__login-blue_svg__uwu__login-blue_svg__st12"/>
    <path d="m44.5 296.2 3.9 6.3C66.8 332 84.9 360.9 95 394.7l3.1-.9c-10.2-34.2-28.4-63.2-46.9-93l-3.9-6.3z" class="uwu__login-blue_svg__uwu__login-blue_svg__uwu__login-blue_svg__uwu__login-blue_svg__st10"/>
    <path d="M66.2 371.7c2.4 3.9 6.3 6.8 11.1 8s9.6.4 13.6-1.9c-2.4-3.9-6.3-6.8-11.1-8s-9.7-.4-13.6 1.9" class="uwu__login-blue_svg__uwu__login-blue_svg__uwu__login-blue_svg__uwu__login-blue_svg__st12"/>
    <path d="M101.4 354.7c1.5 4.3 1.4 9.2-.7 13.7s-5.7 7.7-9.9 9.4c-1.5-4.3-1.4-9.2.7-13.7 2-4.5 5.7-7.7 9.9-9.4m-42.1.9c2.4 3.9 6.3 6.8 11.1 8s9.6.4 13.6-1.9c-2.4-3.9-6.3-6.8-11.1-8s-9.6-.3-13.6 1.9m35.3-17c1.5 4.3 1.4 9.2-.7 13.7s-5.7 7.7-9.9 9.4c-1.5-4.3-1.4-9.2.7-13.7 2-4.5 5.6-7.7 9.9-9.4m-43.5.7c2.4 3.9 6.3 6.8 11.1 8s9.6.4 13.6-1.9c-2.4-3.9-6.3-6.8-11.1-8-4.9-1.2-9.7-.4-13.6 1.9" class="uwu__login-blue_svg__uwu__login-blue_svg__uwu__login-blue_svg__uwu__login-blue_svg__st12"/>
    <path d="M86.3 322.2c1.5 4.3 1.4 9.2-.7 13.7s-5.7 7.7-9.9 9.4c-1.5-4.3-1.4-9.2.7-13.7 2-4.4 5.7-7.7 9.9-9.4m-45.1-.3c2.4 3.9 6.3 6.8 11.1 8s9.6.4 13.6-1.9c-2.4-3.9-6.3-6.8-11.1-8s-9.6-.4-13.6 1.9m35.3-17c1.5 4.3 1.4 9.2-.7 13.7s-5.7 7.7-9.9 9.4c-1.5-4.3-1.4-9.2.7-13.7 2-4.5 5.6-7.7 9.9-9.4m-46.6-1.6c2.4 3.9 6.3 6.8 11.1 8s9.6.4 13.6-1.9c-2.4-3.9-6.3-6.8-11.1-8s-9.6-.4-13.6 1.9m35.3-17c1.5 4.3 1.4 9.2-.7 13.7s-5.7 7.7-9.9 9.4c-1.5-4.3-1.4-9.2.7-13.7 2-4.5 5.6-7.7 9.9-9.4m-35.7 2.2c2 4 4.9 7.3 8.2 8.9s6.5 1.3 8.9-.5c-2-4-4.9-7.3-8.2-8.9s-6.5-1.3-8.9.5" class="uwu__login-blue_svg__uwu__login-blue_svg__uwu__login-blue_svg__uwu__login-blue_svg__st12"/>
    <path d="M51.4 275.5c1.4 4.3 1.9 9.1.9 13.2-.9 4.1-3 6.9-5.7 8.2-1.4-4.3-1.9-9.1-.9-13.2.9-4.2 3-7 5.7-8.2" class="uwu__login-blue_svg__uwu__login-blue_svg__uwu__login-blue_svg__uwu__login-blue_svg__st12"/>
    <path d="M172.1 300.4c-1.5 2-2.9 4-4.4 6-20.6 28.1-40.7 55.6-53.2 88.5l-3-1.1c12.7-33.3 32.9-61 53.7-89.3 1.5-2 2.9-4 4.4-6z" class="uwu__login-blue_svg__uwu__login-blue_svg__uwu__login-blue_svg__uwu__login-blue_svg__st10"/>
    <path d="M144.9 374.1c-2.7 3.7-6.8 6.3-11.7 7.2s-9.6-.3-13.4-2.9c2.7-3.7 6.8-6.3 11.7-7.2 4.9-.8 9.7.3 13.4 2.9M111 354.5c-1.8 4.2-2.1 9.1-.4 13.7s5.1 8.1 9.2 10.1c1.8-4.2 2.1-9.1.4-13.7s-5.1-8.1-9.2-10.1m42 4.1c-2.7 3.7-6.8 6.3-11.7 7.2-4.9.8-9.6-.3-13.4-2.9 2.7-3.7 6.8-6.3 11.7-7.2 4.9-.8 9.6.3 13.4 2.9M119.1 339c-1.8 4.2-2.1 9.1-.4 13.7s5.1 8.1 9.2 10.1c1.8-4.2 2.1-9.1.4-13.7s-5.1-8.1-9.2-10.1m43.3 3.9c-2.7 3.7-6.8 6.3-11.7 7.2-4.9.8-9.6-.3-13.4-2.9 2.7-3.7 6.8-6.3 11.7-7.2s9.6.3 13.4 2.9m-33.9-19.6c-1.8 4.2-2.1 9.1-.4 13.7s5.1 8.1 9.2 10.1c1.8-4.2 2.1-9.1.4-13.7s-5.1-8.1-9.2-10.1m45 3c-2.7 3.7-6.8 6.3-11.7 7.2-4.9.8-9.6-.3-13.4-2.9 2.7-3.7 6.8-6.3 11.7-7.2 4.9-.8 9.6.3 13.4 2.9m-33.9-19.6c-1.8 4.2-2.1 9.1-.4 13.7s5.1 8.1 9.2 10.1c1.8-4.2 2.1-9.1.4-13.7s-5.1-8.1-9.2-10.1m46.5 1.9c-2.7 3.7-6.8 6.3-11.7 7.2s-9.6-.3-13.4-2.9c2.7-3.7 6.8-6.3 11.7-7.2s9.7.3 13.4 2.9M152.2 289c-1.8 4.2-2.1 9.1-.4 13.7s5.1 8.1 9.2 10.1c1.8-4.2 2.1-9.1.4-13.7s-5-8.1-9.2-10.1m35.4 4.8c-2.3 3.8-5.4 6.9-8.9 8.2-3.4 1.4-6.5.8-8.8-1.2 2.3-3.8 5.4-6.9 8.9-8.2s6.6-.8 8.8 1.2" class="uwu__login-blue_svg__uwu__login-blue_svg__uwu__login-blue_svg__uwu__login-blue_svg__st12"/>
    <path d="M166.8 279.2c-1.7 4.2-2.5 8.9-1.9 13.1s2.5 7.2 5.1 8.6c1.7-4.2 2.5-8.9 1.9-13.1-.7-4.2-2.6-7.2-5.1-8.6" class="uwu__login-blue_svg__uwu__login-blue_svg__uwu__login-blue_svg__uwu__login-blue_svg__st12"/>
    <path d="M140 425.3q-1.95-5.85-4.8-10.8l-.7.7-14 14-14-14-2.3-2.3-2.3 2.3-14 14-14-14-.7-.7c-1.9 3.3-3.6 6.9-4.8 10.8l3.3-3.3 14 14 2.3 2.3 2.3-2.3 14-14 14 14 2.3 2.3 2.3-2.3 14-14zm2.1 29.4c.4-2.7.7-5.4.8-8.2l-4-4-2.3-2.3-2.3 2.3-14 14-14-14-2.3-2.3-2.3 2.3-14 14-14-14-2.3-2.3-2.3 2.3-4 4c.1 2.8.4 5.6.8 8.2l5.5-5.5 14 14 2.3 2.3 2.3-2.3 14-14 14 14 2.3 2.3 2.3-2.3 14-14z" class="uwu__login-blue_svg__uwu__login-blue_svg__uwu__login-blue_svg__uwu__login-blue_svg__st11"/>
    <path d="M104.2 474.9H133c2.6-4.1 4.7-8.8 6.1-13.8 1.5-5.2 2.3-10.8 2.3-16.6 0-8-1.5-15.5-4.2-22.2-2.8-6.9-6.7-12.8-11.6-17.2l-.5-.5v-9.4H83.3v9.4l-.5.5c-4.8 4.4-8.8 10.3-11.6 17.2-2.7 6.6-4.2 14.2-4.2 22.2 0 5.8.8 11.4 2.3 16.6 1.4 5.1 3.5 9.7 6.1 13.8zm29.6 3.2H73.6l-.5-.7c-3-4.6-5.4-9.8-7-15.4-1.6-5.5-2.4-11.4-2.4-17.5 0-8.4 1.6-16.3 4.4-23.3 2.8-7.1 6.9-13.2 11.9-17.9V392h48.2v11.2c5 4.7 9 10.8 11.9 17.9 2.8 7 4.4 14.9 4.4 23.3 0 6.1-.8 12-2.4 17.5-1.6 5.7-4 10.9-7 15.4l-.5.7h-.8z" class="uwu__login-blue_svg__uwu__login-blue_svg__uwu__login-blue_svg__uwu__login-blue_svg__st4"/>
    <path d="m104.2 413 2.3 2.3 14 14 13.6-13.6c-2.3-4.1-5.2-7.6-8.4-10.6l-.5-.5v-9.4H83.3v9.4l-.5.5c-3.2 2.9-6 6.5-8.4 10.6L88 429.3l14-14z" class="uwu__login-blue_svg__uwu__login-blue_svg__uwu__login-blue_svg__uwu__login-blue_svg__st5"/>
    <path d="M71 422.7c-2.6 6.5-4 13.9-4 21.8v.4l2.4-2.4 2.3-2.3 2.3 2.3 14 14 14-14 2.3-2.3 2.3 2.3 14 14 14-14 2.3-2.3 2.3 2.3 2.4 2.4v-.4c0-7.8-1.4-15.2-4-21.8l-.7-.7-14 14-2.3 2.3-2.3-2.3-14-14-14 14-2.3 2.3-2.3-2.3-14-14z" class="uwu__login-blue_svg__uwu__login-blue_svg__uwu__login-blue_svg__uwu__login-blue_svg__st5"/>
    <path d="M69.3 461.1c1.4 5.1 3.5 9.7 6.1 13.8H133c2.6-4.1 4.7-8.8 6.1-13.8.7-2.5 1.3-5.1 1.7-7.8l-4.1-4.1-14 14-2.3 2.3-2.3-2.3-14-14-14 14-2.3 2.3-2.3-2.3-14-14-4.1 4.1c.6 2.7 1.2 5.3 1.9 7.8" class="uwu__login-blue_svg__uwu__login-blue_svg__uwu__login-blue_svg__uwu__login-blue_svg__st5"/>
  </g>
</svg>
