<svg version="1.1" id="Layer_1" xmlns="http://www.w3.org/2000/svg" x="0" y="0" viewBox="0 0 512 512" style="enable-background:new 0 0 512 512" xml:space="preserve"><style>.st0{fill:#fff}</style><path class="st0" d="M480 216.4c-3.9-.5-7.8-1-11.7-1.4-5.5-28.7-16.9-56-33.3-80.2 2.5-3.1 4.9-6.2 7.3-9.3 6.6-8.5 13.1-17.1 19.3-25.9l-49.3-49.3c-8.9 6.2-17.4 12.7-25.9 19.3-3.1 2.4-6.2 4.9-9.3 7.3-24.2-16.5-51.5-27.8-80.3-33.3-.4-3.9-.9-7.8-1.4-11.6-1.3-10.7-2.8-21.3-4.7-32H221c-1.9 10.7-3.3 21.3-4.7 32-.5 3.9-1 7.8-1.4 11.6-28.5 5.6-55.9 16.9-80.1 33.4-3.1-2.5-6.2-4.9-9.3-7.3-8.5-6.6-17.1-13.1-25.9-19.3L50.3 99.6c6.2 8.9 12.7 17.4 19.3 25.9 2.4 3.1 4.9 6.2 7.3 9.3-16.5 24.2-27.8 51.5-33.3 80.3-3.9.4-7.8.9-11.6 1.4-10.7 1.3-21.3 2.8-32 4.7v69.7c10.7 1.9 21.3 3.3 32 4.7 3.9.5 7.8 1 11.6 1.4 5.5 28.7 16.9 56 33.3 80.2-2.5 3.1-4.9 6.2-7.3 9.3-6.6 8.5-13.1 17.1-19.3 26l49.3 49.3c8.9-6.2 17.5-12.7 26-19.3 3.1-2.4 6.2-4.9 9.3-7.3 24.2 16.4 51.4 27.7 80.1 33.3.4 3.9.9 7.8 1.4 11.7 1.4 10.7 2.8 21.3 4.7 32h69.7c1.9-10.7 3.4-21.3 4.7-32 .5-3.9 1-7.8 1.4-11.7 28.7-5.5 55.9-16.9 80.1-33.3 3.1 2.5 6.2 4.9 9.3 7.3 8.5 6.6 17.1 13.1 26 19.3l49.3-49.3c-6.2-8.9-12.7-17.5-19.3-26-2.4-3.1-4.9-6.2-7.3-9.3 16.4-24.2 27.7-51.4 33.3-80.1 3.9-.5 7.8-.9 11.7-1.4 10.7-1.4 21.3-2.8 32-4.7v-69.7c-10.7-2.1-21.3-3.5-32-4.9zM336.7 414.9c-87.8 44.6-195 9.5-239.6-78.2-4.2-8.2-7.7-16.8-10.6-25.5-14.7-44.9-10.8-93.9 10.7-136 17.2-33.5 44.4-60.8 78-78 8.3-4.2 16.9-7.8 25.7-10.7 35.8-11.6 74.4-11.6 110.3 0 8.8 2.9 17.4 6.4 25.7 10.7 33.5 17.2 60.8 44.4 78 78 25.9 50.7 25.9 110.8.1 161.5-17.3 33.6-44.7 61-78.3 78.2z"/><path class="st0" d="M154 203.8v-55.9h112.1v55.9H238V274h-55.9v-70.3H154zM358 308.2v55.9H245.9v-55.9H274V238h55.9v70.3H358z"/></svg>